ply
format ascii 1.0
element vertex 709
property float x
property float y
property float z
property uchar red
property uchar green
property uchar blue
element face 55
property list uchar int vertex_index
end_header
27.949537076 18.61007511 -7.6515346111 100 116 195
27.908008344 21.18073851 -7.6515381969 100 116 195
27.442364792 22.209959 -7.6515537329 100 116 195
26.670707343 23.220298777 -7.6515788617 100 116 195
15.026266798 23.369251204 -7.6519446601 100 116 195
-22.737803564 23.414405691 -7.6531305915 100 116 195
-24.485985182 23.282667117 -7.6531853721 100 116 195
-27.730797111 22.991987237 -7.6532870097 100 116 195
-31.843817966 22.104341541 -7.6534153815 100 116 195
-32.702061753 21.666751891 -7.6534419442 100 116 195
-34.183955636 20.855920777 -7.6534877599 100 116 195
-35.657210149 19.162544218 -7.6535325209 100 116 195
-37.190719328 15.329351417 -7.6535772748 100 116 195
-37.333842718 3.2025513504 -7.6535710055 100 116 195
-37.340766204 -11.264837285 -7.6535583816 100 116 195
-37.189061474 -13.919136012 -7.6535512617 100 116 195
-37.061849169 -15.274599987 -7.6535460638 100 116 195
-36.976714768 -15.926246652 -7.6535428119 100 116 195
-36.795378464 -16.740123782 -7.6535363951 100 116 195
-35.142365607 -19.971317368 -7.6534816181 100 116 195
-33.895870488 -21.056043617 -7.6534415121 100 116 195
-32.442095982 -22.055345556 -7.6533949727 100 116 195
-31.559699421 -22.485635774 -7.6533668812 100 116 195
-27.624287985 -22.9238434 -7.65324291 100 116 195
2.7979986702 -23.277090093 -7.6522872565 100 116 195
16.118873005 -23.415752502 -7.6518688228 100 116 195
22.282080747 -23.456253189 -7.6516752459 100 116 195
23.076035659 -23.403022851 -7.6516503609 100 116 195
27.394684703 -22.608945871 -7.6515154488 100 116 195
27.602215576 -21.438232443 -7.6515099709 100 116 195
27.738618707 -20.275991436 -7.6515067191 100 116 195
27.867432334 0.42506989719 -7.6515210483 100 116 195
28.091503746 23.102572299 -22.218184322 100 116 195
28.09154153 22.845374347 -23.680779702 100 116 195
28.091593251 22.347933973 -25.829465123 100 116 195
28.091610754 21.686471404 -27.053946918 100 116 195
28.091620481 21.270038718 -27.783659094 100 116 195
28.091630588 20.059325879 -29.326492019 100 116 195
28.091591307 17.216728963 -30.94237976 100 116 195
28.091571887 16.338837624 -31.209315308 100 116 195
28.091510937 14.001098291 -31.625975278 100 116 195
28.091329233 8.0707315539 -31.820468345 100 116 195
28.091028092 -1.5223029518 -31.905318624 100 116 195
28.090633061 -13.77225446 -31.67982151 100 116 195
28.090565961 -15.604679022 -31.391032312 100 116 195
28.090509645 -16.945519127 -30.949935286 100 116 195
28.090384837 -19.718657193 -29.772174172 100 116 195
28.090319082 -20.648763399 -28.616264599 100 116 195
28.090253313 -21.57624662 -27.457257869 100 116 195
28.090206233 -22.194383825 -26.581407345 100 116 195
28.090046911 -23.117539693 -22.438873952 100 116 195
28.089891445 -23.361305842 -17.733977639 100 116 195
28.089719617 -23.381231813 -12.282314721 100 116 195
28.089699175 -23.200433203 -11.449009465 100 116 195
28.089628278 -22.561551963 -8.5470276721 100 116 195
28.089640914 -21.668787553 -8.0490707504 100 116 195
28.089687766 -20.056581649 -7.9151428627 100 116 195
28.089749309 -17.950689275 -7.7511773997 100 116 195
28.091036822 22.666452138 -7.7890999346 100 116 195
28.091057073 22.831069169 -8.2679416422 100 116 195
28.091377628 23.079210484 -18.225589953 100 116 195
28.647197623 21.804601176 -28.21082585 105 185 185
28.596769519 22.961190214 -25.510486774 105 185 185
28.606357034 23.042162394 -25.321435962 105 185 185
28.844053512 23.443728775 -24.383851841 105 185 185
34.124533125 23.332494484 -24.642945488 105 185 185
36.464036065 23.256381081 -24.820380693 105 185 185
36.776415592 22.986615395 -25.450179699 105 185 185
37.069077549 22.732107754 -26.044357281 105 185 185
36.84658569 22.371519964 -26.886264927 105 185 185
36.459876708 22.035208869 -27.671511569 105 185 185
35.875031507 21.92799086 -27.921906306 105 185 185
33.841745853 19.19546383 -30.627216197 105 185 185
29.30248328 19.264276427 -30.561341112 105 185 185
28.58144878 19.99535336 -29.858045825 105 185 185
28.451013787 20.88588685 -29.001299535 105 185 185
28.936078197 21.272266184 -28.629540516 105 185 185
29.566712721 21.472424341 -28.436928831 105 185 185
30.189981867 21.670174809 -28.246634045 105 185 185
32.32362625 21.825636419 -28.096915148 105 185 185
36.734988743 21.720257171 -28.197979144 105 185 185
36.991278643 21.283786137 -28.617876413 105 185 185
37.115081539 20.649855367 -29.22775336 105 185 185
37.130991718 19.798244196 -30.047061908 105 185 185
35.921935923 19.383061871 -30.446583655 105 185 185
12.471614195 13.660446793 25.573165686 204 104 106
12.391182932 13.659453044 25.497371028 204 104 106
-7.6344548745 13.847675591 4.5974955418 204 104 106
-8.8798810461 13.953802737 2.8580105829 204 104 106
-8.5024610388 14.217535527 2.0072721641 204 104 106
-4.4577240782 15.103474141 1.9260324544 204 104 106
13.069477569 14.78555369 20.931712817 204 104 106
14.328888478 14.7309358 22.445319455 204 104 106
15.114008253 14.637398575 23.665922711 204 104 106
14.448759566 14.358084446 24.301421935 204 104 106
13.606740243 14.044688971 24.918875916 204 104 106
-12.633229109 13.409803903 1.9952380335 204 104 106
-15.047655362 11.98005204 1.7430795979 204 104 106
-15.4986761 11.68001227 1.7458067349 204 104 106
-16.617491974 10.873471415 1.8466936075 204 104 106
-16.750793716 10.637975718 2.0694762385 204 104 106
-17.268692591 9.6210401867 3.0892340171 204 104 106
-16.966426725 9.5051608772 3.5666267298 204 104 106
8.7174805672 9.1461313074 29.787076591 204 104 106
10.230263214 11.076951774 28.38023399 204 104 106
11.034969925 12.314347065 27.313895328 204 104 106
37.143439951 15.523391191 -32.157527219 105 185 185
29.429136419 16.315451833 -31.827512273 105 185 185
28.571693297 16.70314156 -31.665819763 105 185 185
28.646999397 18.964245941 -30.722509617 105 185 185
31.070342198 19.149417031 -30.645125426 105 185 185
35.311081959 19.129932931 -30.653021215 105 185 185
36.75825172 19.102880607 -30.664227699 105 185 185
37.108949122 18.849903124 -30.769747667 105 185 185
37.192590167 17.913367388 -31.160454712 105 185 185
-33.97135712 21.569276435 -4.5180821085 100 116 195
-33.856440498 21.622287307 -5.4834934468 100 116 195
-33.32343485 21.868207374 -7.0134146908 100 116 195
-33.072065708 21.98419195 -7.2813429987 100 116 195
-30.511831352 23.165552492 -7.4517661821 100 116 195
-30.199225079 23.309800513 -7.2687827341 100 116 195
-30.030507582 23.387684251 -5.1355834361 100 116 195
-29.948125874 23.425796371 1.2968041248 100 116 195
-31.481806972 22.718113807 1.3257614705 100 116 195
-33.080898819 21.980243528 1.0047417212 100 116 195
-33.445336128 21.812077007 0.67725977765 100 116 195
-33.743829421 21.674310631 -1.487516151 100 116 195
-33.782035254 21.717959317 0.54970778851 100 116 195
-34.1294313 21.316316819 -6.6606440101 100 116 195
-34.193043782 21.242797952 -7.2597698199 100 116 195
-34.982920403 20.330187169 -7.3410330833 100 116 195
-36.105424491 19.033267223 -7.3683789125 100 116 195
-36.496259804 18.581705197 -7.3324855436 100 116 195
-36.351581467 18.749175949 1.0688321193 100 116 195
-35.553063325 19.671781405 1.4307849705 100 116 195
-33.984130899 21.484493446 1.3951165557 100 116 195
-24.346989199 11.631072337 -6.8553109277 100 116 195
-23.948542124 12.812150422 -6.8474663323 100 116 195
-23.514820983 14.097802661 -6.6829663249 100 116 195
-23.408441178 14.413232556 -5.6322264427 100 116 195
-23.405233208 14.423129372 -1.5060119105 100 116 195
-23.472744636 14.223132123 -0.22672976936 100 116 195
-23.549256734 13.996457509 1.0784399729 100 116 195
-23.867833653 13.052148409 1.2595842859 100 116 195
-23.994055607 12.677993835 1.1819944779 100 116 195
-24.143821803 12.233972698 0.28830829753 100 116 195
-24.315348965 11.725412652 -0.97807729592 100 116 195
-37.400533007 15.658753807 -3.7978711418 100 116 195
-37.343557081 15.82735475 -6.8538158118 100 116 195
-36.998210048 16.850993611 -7.2717176266 100 116 195
-36.67934305 17.796159597 -7.4844657937 100 116 195
-36.332965208 18.823008802 -6.2548604456 100 116 195
-36.324460988 18.848399745 -4.3104120754 100 116 195
-36.411383058 18.591205683 0.58952819333 100 116 195
-36.765231381 17.542400421 1.3600305541 100 116 195
-37.285154318 16.001226681 1.1739973307 100 116 195
-24.456979906 11.30441136 -3.8214870731 100 116 195
-24.509383883 11.265790814 -5.944931954 100 116 195
-24.83301229 11.027569138 -7.1778745894 100 116 195
-26.3106207 9.9400415197 -7.2039572769 100 116 195
-26.596746656 9.7294700991 -6.4256970031 100 116 195
-26.560496323 9.7562018101 -4.2886709587 100 116 195
-26.476697016 9.8179586879 -0.94786840611 100 116 195
-26.061329052 10.123710377 0.67054617958 100 116 195
-25.014136781 10.89446474 1.3266577006 100 116 195
-24.567321523 11.223285554 -0.23138538293 100 116 195
-26.866037922 9.6767016585 0.068915414745 100 116 195
-27.023141774 9.6766856147 -5.6539039357 100 116 195
-27.091598512 9.6766797798 -6.8483729119 100 116 195
-27.499823004 9.6766511271 -7.0679802944 100 116 195
-28.106034532 9.6766086782 -7.2814746787 100 116 195
-28.882336983 9.6765547014 -7.1251616646 100 116 195
-29.441386615 9.6765162393 -6.5529173759 100 116 195
-29.695037355 9.6765044154 0.030766753033 100 116 195
-29.178068612 9.6765416596 1.3865760994 100 116 195
-27.193338093 9.6766797342 1.0710547252 100 116 195
-23.527344095 -13.585844435 -3.5825415151 100 116 195
-23.56526127 -13.759014039 -4.5270334217 100 116 195
-23.645259758 -14.124355283 -6.4102236968 100 116 195
-23.896366368 -15.270419866 -7.4521446865 100 116 195
-24.104290567 -16.219177195 -6.786928087 100 116 195
-24.152935324 -16.440345567 -1.1007033238 100 116 195
-24.159035991 -16.467825943 1.3942883957 100 116 195
-23.937596847 -15.457338849 1.1097420706 100 116 195
-23.581443618 -13.832122398 0.59875708371 100 116 195
37.490551442 23.317253004 -16.598050963 100 116 195
37.490738944 23.221762009 -22.665252972 100 116 195
37.490783963 22.871159086 -24.452431207 100 116 195
37.490803591 22.711600904 -25.238393417 100 116 195
37.490852182 21.258260216 -28.251452877 100 116 195
37.490859251 20.353379261 -29.389107724 100 116 195
37.490840261 18.774570684 -30.376600483 100 116 195
37.490824209 17.624489666 -31.025305623 100 116 195
37.490790808 16.192894841 -31.405405896 100 116 195
37.490772168 15.459603048 -31.551369383 100 116 195
37.490657064 11.507580535 -31.871517906 100 116 195
37.490521124 7.1341451184 -31.953188291 100 116 195
37.490351108 1.6963313432 -32.023146513 100 116 195
37.49009265 -6.3700453608 -31.927598779 100 116 195
37.489887008 -12.748553813 -31.811737474 100 116 195
37.489753293 -16.505656487 -31.342680681 100 116 195
37.489656642 -18.654164025 -30.431655209 100 116 195
37.489500798 -21.361610385 -28.199325589 100 116 195
37.489438144 -22.001181087 -26.849154975 100 116 195
37.489376691 -22.613186979 -25.509415477 100 116 195
37.48925797 -23.127891531 -22.247903817 100 116 195
37.489024238 -23.36096492 -15.039864405 100 116 195
37.488580007 -23.259243968 -0.79100124957 100 116 195
37.48855929 -23.225252541 -0.097008101222 100 116 195
37.488538566 -23.187523014 0.60098381965 100 116 195
37.488540247 -22.406937354 1.3346811569 100 116 195
37.48866753 -18.188810682 1.5353681776 100 116 195
37.489054449 -5.8894607442 1.617998179 100 116 195
37.489466303 7.1289296646 1.6317231083 100 116 195
37.489645798 12.758071103 1.5927836527 100 116 195
37.489849281 18.999386993 1.4073180386 100 116 195
37.489963838 22.47592117 1.2653801406 100 116 195
37.490011148 22.86721113 0.15342156094 100 116 195
37.4900955 23.089480342 -2.3085559977 100 116 195
37.490282386 23.278147086 -8.0695775566 100 116 195
-31.632423745 17.258062934 0.50224344639 100 116 195
-31.320091363 17.402078089 -6.2394210318 100 116 195
-30.751111315 17.664601351 -7.5346326591 100 116 195
-30.28365355 17.880301276 -7.4083027553 100 116 195
-28.751182813 18.587441134 -6.4105479876 100 116 195
-28.667533015 18.626096045 -2.7316410362 100 116 195
-29.192160874 18.384075245 0.97827591688 100 116 195
-32.693157674 14.200184712 -3.3479489054 100 116 195
-32.638833536 14.361050259 -5.0733110673 100 116 195
-32.562304573 14.587829831 -5.7935354708 100 116 195
-32.264626739 15.470064614 -7.3072587863 100 116 195
-31.912929195 16.51263284 -6.6059781006 100 116 195
-31.826119618 16.770104419 -5.004250892 100 116 195
-31.731559564 17.050766445 -1.0989206326 100 116 195
-31.933458537 16.452443833 0.4610116125 100 116 195
-32.167335822 15.759241495 1.0677936864 100 116 195
-32.686507928 14.220188429 -0.23496804124 100 116 195
30.279920721 -19.308321643 -30.563828969 105 185 185
28.651546333 -18.644924362 -30.840622424 105 185 185
29.057800919 -16.01586168 -31.937367702 105 185 185
30.673078648 -16.064593707 -31.916992363 105 185 185
36.61876032 -16.344538573 -31.800039533 105 185 185
37.216089683 -17.674012545 -31.245410548 105 185 185
37.183034611 -18.995549434 -30.694110589 105 185 185
35.075319992 -19.184607673 -30.615301814 105 185 185
28.895752619 -19.365612905 -30.514626966 105 185 185
28.711259192 -20.990645153 -28.856457098 105 185 185
28.804794214 -21.501988586 -28.334684942 105 185 185
28.919315522 -21.678403277 -28.154671548 105 185 185
31.325531845 -22.002500193 -27.823942798 105 185 185
35.53466132 -22.102982399 -27.721372073 105 185 185
36.672642476 -21.947830959 -27.879676875 105 185 185
37.242313024 -20.729700599 -29.122643286 105 185 185
37.215236668 -20.175605016 -29.688038815 105 185 185
37.183899179 -19.6180342 -30.256980489 105 185 185
31.204575321 -19.391826127 -30.487857576 105 185 185
-31.515534222 -10.912676206 0.47637897977 100 116 195
-31.635782855 -11.178114649 -4.379752413 100 116 195
-31.736320635 -11.399938732 -6.9515023388 100 116 195
-32.052696652 -12.09744995 -7.442378283 100 116 195
-32.76525192 -13.668280388 -6.6448957054 100 116 195
-32.709328375 -13.544525526 0.0130181429 100 116 195
-32.454592392 -12.98287588 0.9163908026 100 116 195
-28.291352176 -23.047637219 -7.7801690512 105 185 185
-30.109803154 -23.077836154 -7.7493712817 105 185 185
-30.773609354 -23.167888544 -7.6574886601 105 185 185
-30.532657973 -23.27351124 -7.5497097419 105 185 185
-27.750164168 -23.473730136 -7.3453817405 105 185 185
-23.581224254 -23.498616556 -7.3199488057 105 185 185
-8.995284395 -23.552111298 -7.2652266742 105 185 185
-8.7582471973 -23.499268671 -7.3191447056 105 185 185
-7.8995805742 -23.281839372 -7.5410000144 105 185 185
-10.480622212 -23.175999194 -7.6490227442 105 185 185
7.3084346417 1.689236146 31.890042035 204 104 106
7.9217378505 5.289381389 31.27639841 204 104 106
8.5524230486 7.2262386524 30.645437364 204 104 106
9.1809512579 8.2901822457 30.016670669 204 104 106
10.487676718 10.497652526 28.70944958 204 104 106
11.28555477 11.550185094 27.911281316 204 104 106
13.198603595 13.233419537 25.997571991 204 104 106
17.445904388 14.659076695 21.748901946 204 104 106
18.571066314 14.795809574 20.623387417 204 104 106
23.477007981 14.727552267 15.715936265 204 104 106
26.311148918 14.623265318 12.880926032 204 104 106
26.391644938 14.531880783 12.800409038 204 104 106
26.552058368 13.683836493 12.639981811 204 104 106
26.764884171 9.9086178457 12.427249113 204 104 106
26.811385392 8.8289376932 12.380778947 204 104 106
26.838992725 7.7776912264 12.3532073 204 104 106
26.841826259 -5.1598156301 12.350916796 204 104 106
26.542495761 -13.248272331 12.650679615 204 104 106
26.339687763 -13.832176142 12.85357468 204 104 106
25.980175964 -14.225896395 13.213213859 204 104 106
25.444524083 -14.49299131 13.749042093 204 104 106
19.352951596 -14.822065606 19.842506265 204 104 106
18.797852321 -14.816353626 20.39777642 204 104 106
14.840743501 -14.081899828 24.356074222 204 104 106
12.014126035 -12.250517003 27.183486057 204 104 106
10.453464982 -10.741952455 28.744564795 204 104 106
10.133401202 -10.187983085 29.06470395 204 104 106
8.2663257667 -6.0621232123 30.932181495 204 104 106
7.9556759675 -4.7905346323 31.2428736 204 104 106
7.7446762991 -3.8699508203 31.453899611 204 104 106
7.3094029417 0.00028289084427 31.889144442 204 104 106
-20.599229505 7.0497757321 2.022248962 204 104 106
-19.907174936 8.0367846727 1.859043119 204 104 106
-19.03908344 9.1993274108 1.7197567225 204 104 106
-17.400551349 10.833243957 1.94233776 204 104 106
8.2664183054 9.5131387591 28.745974587 204 104 106
8.7612209605 9.4667986022 29.280788494 204 104 106
7.7875552867 6.3385920309 31.017436739 204 104 106
7.3613527826 6.0741374713 30.820454144 204 104 106
5.2801808393 6.0159017404 28.790298968 204 104 106
4.5896412185 5.9971531489 28.11618942 204 104 106
-3.6683360018 5.9375157226 19.912121934 204 104 106
-20.378245179 6.0708953195 3.0912036054 204 104 106
-20.554142615 6.21512935 2.7904001604 204 104 106
27.399731027 14.478775382 4.8572488107 204 104 106
30.186508254 14.519088852 7.6431481763 204 104 106
30.775907277 14.094178139 8.2325669002 204 104 106
30.815105065 12.269663244 8.2726170798 204 104 106
30.757456992 -12.880380205 8.2269030867 204 104 106
30.581623007 -13.507212789 8.0514202848 204 104 106
29.62178448 -14.163040908 7.0921882738 204 104 106
27.740475053 -14.624941451 5.2116774355 204 104 106
-22.703027913 3.8939377787 1.674636758 204 104 106
-21.164424529 6.9964429469 1.9050580947 204 104 106
6.5514448321 6.0736583279 30.001839511 204 104 106
6.8846349125 6.0109775698 30.361353343 204 104 106
7.5034241588 5.3441644563 31.261030862 204 104 106
7.0433068805 2.9717433999 31.801045045 204 104 106
6.7175520957 2.6682629389 31.603304751 204 104 106
6.1511050565 2.1603181758 31.251125743 204 104 106
-14.808900905 2.3423470215 10.220480952 204 104 106
-21.314054086 2.5857667578 3.6146135474 204 104 106
-22.881412513 2.9856332344 1.8791628902 204 104 106
-23.10999201 -0.24622631748 1.9569230604 204 104 106
-23.021283155 2.061573076 2.0445111231 204 104 106
-18.004987026 2.3624190063 7.0591189107 204 104 106
-4.0611162669 2.3492775807 20.998699019 204 104 106
0.49538465051 2.3144322799 25.553812337 204 104 106
6.0388329903 2.179725839 31.095616259 204 104 106
6.7748634409 1.0497075938 31.831955311 204 104 106
6.7214507651 -1.7347413271 31.779878391 204 104 106
6.2291805318 -2.116947328 31.287940946 204 104 106
-22.966877149 -2.4144753226 2.1010211551 204 104 106
20.727442388 5.3843120934 18.027886343 204 104 106
17.961772755 6.3698681388 16.703518624 204 104 106
16.662711551 6.1517131499 15.086128471 204 104 106
16.34369866 5.5910143573 13.947835021 204 104 106
16.073804671 5.0293232134 12.857192109 204 104 106
15.868216113 4.4707705241 11.83541736 204 104 106
16.890377045 3.6196348806 11.613361126 204 104 106
20.274115668 3.2843005923 14.505795647 204 104 106
21.352510042 3.5150996249 15.921078379 204 104 106
21.424480317 4.0332017617 16.750170279 204 104 106
7.2766985092 -3.9972654067 31.584859611 204 104 106
6.8134823398 -2.6588275614 31.696516306 204 104 106
5.7992186113 -2.2667348402 30.850947054 204 104 106
4.6385160854 -2.0844348197 29.768902332 204 104 106
-9.4111806358 -2.0247404965 15.749421517 204 104 106
-13.453197964 -2.0717510203 11.688536586 204 104 106
-20.590339622 -2.2846463658 4.4623065086 204 104 106
-22.30912525 -2.4273738591 2.6827947688 204 104 106
-22.737975223 -3.2709343483 1.891862001 204 104 106
-22.54804674 -4.1109802129 1.7210150016 204 104 106
-22.397057263 -4.6026799178 1.6608206391 204 104 106
-21.262398568 -6.9408484418 1.7911056605 204 104 106
3.7949727324 -5.9306976472 27.27405884 204 104 106
6.9900555632 -5.3304191542 30.725857399 204 104 106
7.2029616126 -4.6812071894 31.217463934 204 104 106
7.269020559 -4.4299919029 31.391372526 204 104 106
9.0207789697 -9.3558740159 29.68051395 204 104 106
-1.4951752304 -9.0891560293 19.558224841 204 104 106
-14.718356403 -9.5188739598 5.7119462709 204 104 106
-16.94631367 -9.6785745121 3.2514279792 204 104 106
-17.659316882 -10.036647432 2.0154048344 204 104 106
-17.499372745 -10.316738726 1.765967813 204 104 106
-15.911572464 -11.353880445 1.8375148318 204 104 106
-14.969822096 -11.849793014 2.0541964765 204 104 106
-14.051248501 -12.325433216 2.2773357079 204 104 106
10.771522629 -12.112206573 27.402539333 204 104 106
10.772785065 -11.960890275 27.624933119 204 104 106
11.288087134 -12.375552746 27.210028304 204 104 106
9.192068531 -12.186347379 25.589450236 204 104 106
8.3604839959 -12.149894116 24.849643392 204 104 106
4.6068958954 -12.01745248 21.429803973 204 104 106
-13.474962493 -12.034559638 3.3125151227 204 104 106
-13.53884856 -12.548915314 1.9585248229 204 104 106
-9.1112708081 -14.3682346 1.8209707327 204 104 106
11.948608891 -13.899293275 24.048360527 204 104 106
12.674304063 -13.444707549 25.913968465 204 104 106
-8.0305843603 -14.283365869 2.1512054413 204 104 106
-8.17753668 -14.242967512 2.228474868 204 104 106
-8.3068082932 -14.057291801 3.1294577307 204 104 106
-7.5089761127 -14.014789527 4.1626733511 204 104 106
-2.5971910389 -13.951196698 9.4246314613 204 104 106
12.732651042 -13.897553205 25.043804779 204 104 106
13.612861047 -14.042682347 25.118318296 204 104 106
14.590925741 -14.363089769 24.318137103 204 104 106
15.391032651 -14.690191155 23.302954346 204 104 106
15.714848364 -14.879877704 22.574156939 204 104 106
14.129864458 -14.935944295 20.678956827 204 104 106
-0.33052036924 -14.959079027 6.0980418239 204 104 106
-3.6186737509 -14.943167131 2.8999524831 204 104 106
-20.308769374 -7.6142851234 1.821635206 204 104 106
-20.595837345 -6.686107698 2.3140968002 204 104 106
-20.795459261 -5.9767194532 2.7102476193 204 104 106
-20.325422538 -5.8668085317 3.2724198826 204 104 106
6.8651058962 -4.7247392649 31.412654496 204 104 106
8.5116180303 -7.8428503727 30.44018755 204 104 106
8.5723246379 -8.8686089024 29.639499242 204 104 106
8.0054503994 -9.011757008 28.952612015 204 104 106
6.5901761642 -9.2894593635 27.304625131 204 104 106
1.425328438 -9.4165605122 22.034819 204 104 106
-18.27595661 -9.3568609377 2.3904330391 204 104 106
-18.746422336 -9.3117738197 1.9579905175 204 104 106
-18.864744872 -9.2225619754 1.9146236894 204 104 106
-19.898772373 -8.0846694408 1.8364892102 204 104 106
23.350948946 14.098379799 7.8397980118 204 104 106
23.958021514 14.315071453 7.2325291914 204 104 106
24.553088113 14.507305224 6.6372710688 204 104 106
25.13828885 14.679720545 6.0518826834 204 104 106
25.717812512 14.844594488 5.4721734401 204 104 106
26.331047947 14.103393126 4.8587801238 204 104 106
25.991574295 -14.400328971 5.1995567473 204 104 106
25.915084683 -14.532685147 5.276075503 204 104 106
24.84539301 -14.720415101 6.346104822 204 104 106
23.558039644 -14.805667786 7.6338586252 204 104 106
23.35544328 13.111453644 7.835343783 204 104 106
35.563126192 18.709021659 -23.295701508 105 185 185
30.921932745 18.532498978 -22.511934095 105 185 185
30.348582888 18.498917905 -22.36286346 105 185 185
29.188705273 18.339711454 -21.656279915 105 185 185
28.281196327 18.05423016 -20.389384442 105 185 185
36.822444257 18.055738397 -20.396921535 105 185 185
36.767051224 18.541119389 -22.550764487 105 185 185
29.601177834 17.769037617 -25.180799393 105 185 185
28.739886133 17.846209405 -25.000722226 105 185 185
29.409800129 18.714179824 -22.974151855 105 185 185
36.705461951 18.550109071 -23.356372391 105 185 185
36.807084197 18.236846883 -24.08774917 105 185 185
35.92814405 17.902209181 -24.869145769 105 185 185
-37.409132633 -15.623346858 -1.7761574588 100 116 195
-37.399357678 -15.65282738 -5.323276565 100 116 195
-37.372151565 -15.735617028 -7.4184312888 100 116 195
-36.560123744 -18.2126099 -7.2672502864 100 116 195
-36.503094726 -18.387130661 -1.349207255 100 116 195
-36.566134029 -18.195043021 0.81127147952 100 116 195
-36.663948472 -17.89671429 1.2400652484 100 116 195
-37.073402797 -16.647748156 1.4258869415 100 116 195
-37.357563207 -15.78091352 0.97681989652 100 116 195
-23.820599426 -12.440149038 -2.7210138395 100 116 195
-23.84141835 -12.414061444 -6.5406111277 100 116 195
-25.330882813 -10.558077206 -7.3129334397 100 116 195
-25.589085224 -10.236407343 -5.6249227032 100 116 195
-25.718139239 -10.075631776 -4.7661831581 100 116 195
-25.471102046 -10.383635836 -0.0038619312182 100 116 195
-24.08674601 -12.108659902 1.0486029026 100 116 195
-34.196706278 -21.334020133 -4.3604984453 100 116 195
-34.35438717 -21.137437009 -7.0814239011 100 116 195
-36.218665884 -18.814433313 -7.3378096789 100 116 195
-36.530662183 -18.425761654 -4.9085048262 100 116 195
-36.413569915 -18.571767928 -2.2186844104 100 116 195
-36.292032821 -18.7233158 0.55218773074 100 116 195
-35.98846597 -19.101595658 1.0451602755 100 116 195
-34.868265117 -20.497438824 1.3392453551 100 116 195
-34.358925976 -21.132085039 0.85836358173 100 116 195
-30.510386007 -23.276029542 -4.6537894561 100 116 195
-30.674521801 -23.188982738 -6.5229795721 100 116 195
-31.892184818 -22.543420566 -7.3182095526 100 116 195
-33.519530198 -21.680674111 -7.4343030566 100 116 195
-33.875943608 -21.491736584 -6.3760889493 100 116 195
-33.989916799 -21.431332638 -5.1410669062 100 116 195
-34.346332065 -21.242440199 -1.1595947385 100 116 195
-34.216048491 -21.311529781 0.055254918745 100 116 195
-34.012541795 -21.419441823 1.4532401211 100 116 195
-32.289452246 -22.332946134 1.4834221581 100 116 195
-31.350255162 -22.830860605 1.1550891857 100 116 195
-30.722742784 -23.163530483 0.60366784899 100 116 195
-30.528686964 -23.266337134 -4.0238593274 100 116 195
36.65006095 -9.6514515643 -21.278337597 100 116 195
36.062740798 -9.6514943932 -23.398996347 100 116 195
28.48829036 -9.6520227586 -23.794080813 100 116 195
28.251093862 -9.6520380024 -22.343055616 100 116 195
29.16190127 -9.6519738906 -21.646738104 100 116 195
30.138630646 -9.6519056879 -21.517412249 100 116 195
33.71017421 -9.651656509 -21.284694822 100 116 195
-9.3621720411 14.262877422 1.966452604 204 104 106
-10.519231198 13.788119461 1.9660436717 204 104 106
-11.644781931 13.20888156 2.2516281789 204 104 106
-13.407176567 12.249948681 2.8253582021 204 104 106
-13.120471053 12.191319901 3.25481228 204 104 106
-11.841461839 12.020152293 4.9504871236 204 104 106
-9.164167086 12.02460089 7.6163950171 204 104 106
1.749341688 12.067650304 18.42279829 204 104 106
9.4450830739 12.115699763 25.999917328 204 104 106
10.76438558 12.18008579 27.162117284 204 104 106
11.819126638 12.718447266 26.905304183 204 104 106
12.446231615 13.137822327 26.510769282 204 104 106
12.285397705 13.592133859 25.243359642 204 104 106
11.38183231 13.72016726 24.028117347 204 104 106
18.33755126 14.929596622 19.768119936 100 116 195
3.3252647688 14.928535063 2.8489294914 100 116 195
1.6308361804 14.92841624 2.0570975056 100 116 195
-1.4329878068 14.928202624 2.0149060194 100 116 195
-3.5662249887 14.928054113 2.2365457685 100 116 195
-4.015743902 14.928023677 3.2474912358 100 116 195
-2.8098537601 14.928109335 5.0410984186 100 116 195
14.907466313 14.929360317 22.921607769 100 116 195
15.775754862 14.929420924 23.009656796 100 116 195
17.719014696 14.929554355 20.725170252 100 116 195
18.13099665 -7.1757070731 19.925821377 100 116 195
12.785161253 -7.176084203 14.899364487 100 116 195
10.395577524 -7.1762525537 12.906537999 100 116 195
8.8863094963 -7.1763583085 12.295318529 100 116 195
7.0774972481 -7.1764841062 12.626061418 100 116 195
6.8872016204 -7.1764965009 13.604748876 100 116 195
11.424718208 -7.1761759143 18.411462995 100 116 195
14.577542737 -7.1759533704 21.514366326 100 116 195
15.718946593 -7.1758734391 21.923700395 100 116 195
17.628381296 -7.1757414195 20.70221898 100 116 195
23.128488994 -13.882348849 8.5313142175 204 104 106
25.011636061 14.167491119 10.400590719 204 104 106
26.71218875 14.513953592 12.100455217 204 104 106
26.694352237 -8.8635569902 12.093700673 204 104 106
26.600150618 -10.64693031 12.000373061 204 104 106
26.457027619 -13.27199463 11.858537945 204 104 106
26.409419151 -14.134928423 11.811353014 204 104 106
25.10232849 -14.569766214 10.504871169 204 104 106
24.457083241 -14.349279225 9.8597202874 204 104 106
29.702140208 -11.395915918 -26.436942294 105 185 185
28.573597989 -10.676308715 -25.466303154 105 185 185
29.090688791 -10.311711516 -24.974425868 105 185 185
29.550842403 -10.025437378 -24.588209483 105 185 185
30.141338007 -9.8202733883 -24.311397914 105 185 185
31.721082698 -9.7873387829 -24.266836532 105 185 185
36.267447731 -9.7078700103 -24.159251216 105 185 185
37.223604466 -10.552203419 -25.298157826 105 185 185
36.824852823 -11.08533515 -26.017374524 105 185 185
34.125110718 -11.208233436 -26.183389463 105 185 185
36.159750309 15.046872723 2.697258642 100 116 195
35.078539311 15.046796748 2.0188922205 100 116 195
32.663589689 15.046628285 1.8862316635 100 116 195
17.301569907 15.045557455 1.9475174068 100 116 195
11.041289619 15.04512131 2.23750588 100 116 195
4.6011201167 15.044672757 2.6763536824 100 116 195
1.0939419244 15.044428731 3.1915764869 100 116 195
1.5658640868 15.044462715 4.4132962333 100 116 195
16.171938574 15.045496972 22.473291259 100 116 195
19.072465804 15.045696902 19.926914117 100 116 195
33.517200433 15.04669093 5.4155139431 100 116 195
34.662802208 15.046769749 4.245706968 100 116 195
-37.489230058 15.608521467 0.23977142342 100 116 195
-37.489068415 15.599036977 -4.9172051014 100 116 195
-37.489039779 15.547274864 -5.8813073653 100 116 195
-37.489024126 15.087703122 -6.8432458582 100 116 195
-37.489033781 14.566892877 -7.0610377914 100 116 195
-37.48912537 11.337188298 -7.401556073 100 116 195
-37.489643119 -5.0656075006 -7.4562693069 100 116 195
-37.489950444 -14.764409717 -7.4508917781 100 116 195
-37.489978564 -15.300561066 -7.0961435924 100 116 195
-37.490065804 -15.44231631 -4.4609887137 100 116 195
-37.490177155 -15.400900931 -0.87329447026 100 116 195
-37.490229126 -15.262752192 0.92099366146 100 116 195
-37.49022187 -14.99107554 0.96392254068 100 116 195
-37.490071428 -9.6641845564 1.5453283729 100 116 195
-37.489458049 9.766568705 1.6084352654 100 116 195
-37.489432848 10.556759138 1.6028316256 100 116 195
-37.489323424 13.947038243 1.5373611995 100 116 195
-37.489293375 14.81737465 1.4582001648 100 116 195
37.447079325 -17.086120515 1.6519266492 100 116 195
37.158302161 19.303262715 1.6518852815 100 116 195
36.673397301 22.543714517 1.651867178 100 116 195
36.466061237 22.666347487 1.6518605582 100 116 195
35.387398433 23.030595761 1.651826362 100 116 195
34.572215088 23.28628352 1.6518005362 100 116 195
32.639703582 23.327356397 1.6517398138 100 116 195
-21.520831132 23.267347363 1.6500390835 100 116 195
-26.594094171 23.245573068 1.649879789 100 116 195
-29.131843449 23.221483281 1.6498001184 100 116 195
-31.918788103 22.135906197 1.6497135645 100 116 195
-32.983230182 21.640766132 1.6496805777 100 116 195
-33.682547545 21.081962558 1.6496591133 100 116 195
-35.030478884 19.706785187 1.6496180053 100 116 195
-35.713862773 18.699287398 1.6495974395 100 116 195
-36.674815389 16.689668634 1.6495690468 100 116 195
-37.088946791 15.017471299 1.6495575263 100 116 195
-37.44666566 13.541407663 1.6495476031 100 116 195
-37.449153116 13.106434908 1.6495479111 100 116 195
-37.435191183 -10.447370448 1.649569256 100 116 195
-36.736072553 -17.053821563 1.649597074 100 116 195
-36.208301578 -18.180641173 1.6496146476 100 116 195
-35.171386554 -19.729246144 1.649648584 100 116 195
-34.773639195 -20.177148833 1.6496614719 100 116 195
-33.466239188 -21.275295279 1.6497035024 100 116 195
-32.061618902 -22.198184964 1.6497484303 100 116 195
-29.9085013 -22.990444166 1.6498167471 100 116 195
-27.899244739 -23.219692218 1.6498800466 100 116 195
-8.3117321846 -23.314483565 1.6504952302 100 116 195
19.085672549 -23.361185025 1.6513556224 100 116 195
36.657387377 -23.051666277 1.6519071458 100 116 195
37.435190778 23.44634519 -21.741415089 100 116 195
37.051540242 23.446315961 -24.534267573 100 116 195
33.494125486 23.4460679 -24.616853907 100 116 195
30.98613513 23.445893056 -24.631412681 100 116 195
28.853490603 23.445744577 -24.420931036 100 116 195
-29.315501893 23.441704903 -7.2501049494 100 116 195
-29.376055304 23.441701105 -6.7749410475 100 116 195
-29.541625515 23.441692916 -3.0066166839 100 116 195
-29.572230338 23.441691674 -2.0049756669 100 116 195
-29.295935848 23.441713801 1.2169164026 100 116 195
-27.919712026 23.441809915 1.4166805993 100 116 195
-16.916151969 23.442577017 1.4672342421 100 116 195
-5.9249033365 23.443343239 1.4944540087 100 116 195
2.7111572122 23.443945274 1.5123097639 100 116 195
8.6730113216 23.444360875 1.5141079002 100 116 195
30.164463741 23.445858982 1.4473023504 100 116 195
36.622016375 23.446309004 1.2981234016 100 116 195
36.672377237 23.446312494 1.2745336615 100 116 195
36.895296197 23.446327473 0.64464303433 100 116 195
37.240502807 23.44634798 -3.3534896195 100 116 195
37.291615451 23.446348468 -6.8086013677 100 116 195
37.381002264 23.446347935 -14.410551098 100 116 195
37.431039126 -23.450111978 -15.698658892 100 116 195
37.023618512 -23.450047203 -23.030710191 100 116 195
36.442963383 -23.44994676 -24.268823454 100 116 195
31.702824227 -23.449118035 -24.440599262 100 116 195
28.248985916 -23.44851374 -24.049886533 100 116 195
-29.63279987 -23.438377501 -7.2319329882 100 116 195
-29.693319244 -23.438366546 -6.8096445455 100 116 195
-30.0243173 -23.438305249 -2.9354976042 100 116 195
-29.480366641 -23.43839726 0.58564193092 100 116 195
-29.189724404 -23.43844797 0.71291769545 100 116 195
-27.540671654 -23.438735768 1.3489156448 100 116 195
-22.738758927 -23.439575347 1.4618111795 100 116 195
-16.897279128 -23.440596754 1.5234552687 100 116 195
33.832040658 -23.449467426 1.5541297877 100 116 195
34.688608669 -23.44961722 1.5410186508 100 116 195
35.54093423 -23.449766297 1.4996676702 100 116 195
36.38975002 -23.449914773 1.4447840524 100 116 195
37.117043946 -23.450043618 -0.44695621382 100 116 195
37.423519249 -23.450099943 -3.5460800553 100 116 195
31.849220008 15.941475099 -32.036358881 105 185 185
28.729299199 15.912151055 -32.036501372 105 185 185
28.169840052 7.1933473696 -32.040222758 105 185 185
28.21189601 -11.169384724 -32.048009525 105 185 185
28.416631631 -15.224605585 -32.049721005 105 185 185
36.134939832 -15.653095382 -32.049581012 105 185 185
36.679136867 -15.628409051 -32.049547856 105 185 185
37.226359404 -12.43968752 -32.048172555 105 185 185
37.258948479 1.0836711688 -32.042435288 105 185 185
37.236601691 7.2061875745 -32.039839365 105 185 185
37.189710657 9.6554861816 -32.038802454 105 185 185
37.102265663 12.678317761 -32.037523971 105 185 185
36.702608273 15.695072938 -32.036261079 105 185 185
36.319698226 15.822483306 -32.036223 105 185 185
35.178233915 15.887957028 -32.036242811 105 185 185
35.463951915 -14.945484713 2.253930579 100 116 195
34.550881392 -14.945548467 2.1373629693 100 116 195
29.168340804 -14.945923869 1.9280604358 100 116 195
-0.014217158021 -14.94795815 1.9628594328 100 116 195
-2.5752564235 -14.948136564 2.0929815851 100 116 195
-2.6893934429 -14.948143708 3.0055816457 100 116 195
-1.1043644927 -14.948031389 5.0596604776 100 116 195
5.5152890273 -14.947563489 12.30186377 100 116 195
10.957104688 -14.947179467 17.555593588 100 116 195
13.821294934 -14.946977378 20.282682518 100 116 195
15.796319789 -14.94683838 21.764656138 100 116 195
16.672549618 -14.946777202 21.873414986 100 116 195
17.700978569 -14.946706189 21.11017038 100 116 195
18.232277224 -14.946669528 20.688158064 100 116 195
20.869337543 -14.946487966 18.139965136 100 116 195
34.593690317 -14.945543437 4.4362416927 100 116 195
35.2873157 -14.945496201 3.181261495 100 116 195
31.013762056 11.354608485 8.1770006346 204 104 106
31.511405213 14.411290762 7.6790755639 204 104 106
32.055654099 14.582844087 7.1346516901 204 104 106
32.592821798 14.738239916 6.5973118646 204 104 106
33.12213619 14.872057792 6.067828675 204 104 106
35.819128795 14.879451137 3.3700043577 204 104 106
36.911321619 14.834082238 2.2774767501 204 104 106
37.440359523 14.609048053 1.7482852201 204 104 106
37.491081708 13.678593275 1.697586516 204 104 106
37.563638124 5.177522617 1.6253651256 204 104 106
37.529178901 -14.754508428 1.6606729318 204 104 106
37.434824621 -15.461305579 1.755086012 204 104 106
31.373376232 -14.405868074 7.8183585938 204 104 106
31.160745211 -11.287130093 8.0309240481 204 104 106
37.392571452 -22.158762929 -27.564168705 105 185 185
29.143860187 -22.192741441 -27.470694182 105 185 185
28.961438066 -22.258185659 -27.291366194 105 185 185
28.311576746 -22.665731807 -26.174644229 105 185 185
28.393230518 -23.125567283 -24.914680423 105 185 185
29.420773488 -23.24987359 -24.574122544 105 185 185
35.700655217 -23.353764359 -24.289740955 105 185 185
36.587166102 -23.060626716 -25.092989737 105 185 185
36.923455302 -22.813771114 -25.769399072 105 185 185
12.689379852 -3.5099276127 25.920114304 204 104 106
11.641323719 -3.3043120266 25.172929668 204 104 106
6.8540421389 -3.8226677978 19.629898557 204 104 106
5.1758662875 -4.5422124277 16.900809091 204 104 106
4.885873111 -5.104664264 15.788962753 204 104 106
4.6252519142 -5.6667670405 14.70698765 204 104 106
4.405114033 -6.2245929256 13.671731099 204 104 106
5.5142787665 -6.6100648256 14.217161898 204 104 106
7.8220807345 -6.8284650327 16.204943482 204 104 106
14.330786377 -6.9278532678 22.565998775 204 104 106
14.42590065 -6.4316850417 23.386172165 204 104 106
32 0 1 2 3 4 5 6 7 8 9 10 11 12 13 14 15 16 17 18 19 20 21 22 23 24 25 26 27 28 29 30 31 
29 32 33 34 35 36 37 38 39 40 41 42 43 44 45 46 47 48 49 50 51 52 53 54 55 56 57 58 59 60 
11 61 62 63 64 65 66 67 68 69 70 71 
13 72 73 74 75 76 77 78 79 80 81 82 83 84 
11 85 86 87 88 89 90 91 92 93 94 95 
10 96 97 98 99 100 101 102 103 104 105 
9 106 107 108 109 110 111 112 113 114 
12 115 116 117 118 119 120 121 122 123 124 125 126 
9 127 128 129 130 131 132 133 134 135 
11 136 137 138 139 140 141 142 143 144 145 146 
9 147 148 149 150 151 152 153 154 155 
10 156 157 158 159 160 161 162 163 164 165 
10 166 167 168 169 170 171 172 173 174 175 
9 176 177 178 179 180 181 182 183 184 
35 185 186 187 188 189 190 191 192 193 194 195 196 197 198 199 200 201 202 203 204 205 206 207 208 209 210 211 212 213 214 215 216 217 218 219 
7 220 221 222 223 224 225 226 
10 227 228 229 230 231 232 233 234 235 236 
8 237 238 239 240 241 242 243 244 
11 245 246 247 248 249 250 251 252 253 254 255 
7 256 257 258 259 260 261 262 
10 263 264 265 266 267 268 269 270 271 272 
31 273 274 275 276 277 278 279 280 281 282 283 284 285 286 287 288 289 290 291 292 293 294 295 296 297 298 299 300 301 302 303 
13 304 305 306 307 308 309 310 311 312 313 314 315 316 
8 317 318 319 320 321 322 323 324 
11 325 326 327 328 329 330 331 332 333 334 335 
10 336 337 338 339 340 341 342 343 344 345 
10 346 347 348 349 350 351 352 353 354 355 
16 356 357 358 359 360 361 362 363 364 365 366 367 368 369 370 371 
11 372 373 374 375 376 377 378 379 380 381 382 
9 383 384 385 386 387 388 389 390 391 
13 392 393 394 395 396 397 398 399 400 401 402 403 404 
14 405 406 407 408 409 410 411 412 413 414 415 416 417 418 
11 419 420 421 422 423 424 425 426 427 428 429 
7 430 431 432 433 434 435 436 
6 437 438 439 440 441 442 
9 443 444 445 446 447 448 449 450 451 
7 452 453 454 455 456 457 458 
9 459 460 461 462 463 464 465 466 467 
13 468 469 470 471 472 473 474 475 476 477 478 479 480 
7 481 482 483 484 485 486 487 
14 488 489 490 491 492 493 494 495 496 497 498 499 500 501 
10 502 503 504 505 506 507 508 509 510 511 
10 512 513 514 515 516 517 518 519 520 521 
9 522 523 524 525 526 527 528 529 530 
10 531 532 533 534 535 536 537 538 539 540 
12 541 542 543 544 545 546 547 548 549 550 551 552 
18 553 554 555 556 557 558 559 560 561 562 563 564 565 566 567 568 569 570 
31 571 572 573 574 575 576 577 578 579 580 581 582 583 584 585 586 587 588 589 590 591 592 593 594 595 596 597 598 599 600 601 
22 602 603 604 605 606 607 608 609 610 611 612 613 614 615 616 617 618 619 620 621 622 623 
19 624 625 626 627 628 629 630 631 632 633 634 635 636 637 638 639 640 641 642 
15 643 644 645 646 647 648 649 650 651 652 653 654 655 656 657 
17 658 659 660 661 662 663 664 665 666 667 668 669 670 671 672 673 674 
14 675 676 677 678 679 680 681 682 683 684 685 686 687 688 
9 689 690 691 692 693 694 695 696 697 
11 698 699 700 701 702 703 704 705 706 707 708 

