ply
format ascii 1.0
element vertex 876
property float x
property float y
property float z
property uchar red
property uchar green
property uchar blue
element face 67
property list uchar int vertex_index
end_header
-29.972213745 23.445262862 -5.1355814934 100 116 195
-29.87821579 23.445262862 1.2968064547 100 116 195
-27.919713974 23.445262862 1.4166805744 100 116 195
-16.916151047 23.445262862 1.4672342539 100 116 195
-5.9249019623 23.445262862 1.4944540262 100 116 195
2.7111592293 23.445262862 1.5123097897 100 116 195
8.6730146408 23.445262862 1.5141079426 100 116 195
30.164463043 23.445262862 1.4473023415 100 116 195
36.622013092 23.445262862 1.2981233597 100 116 195
36.672374725 23.445262862 1.2745336294 100 116 195
36.895294189 23.445262862 0.64464300871 100 116 195
37.240501404 23.445262862 -3.3534896374 100 116 195
37.233818054 23.445262862 -5.5847177505 100 116 195
36.438560486 23.445262862 -6.9829483032 100 116 195
35.531539917 23.445262862 -7.3888063431 100 116 195
32.658321381 23.445262862 -7.5525808334 100 116 195
27.278701782 23.445262862 -7.5650849342 100 116 195
-0.90712141991 23.445262862 -7.5699968338 100 116 195
-25.626049042 23.445262862 -7.4819626808 100 116 195
-29.315498352 23.445262862 -7.2501049042 100 116 195
-29.788816452 23.445262862 -7.0633010864 100 116 195
28.161123276 23.445262862 -14.319452286 157 167 127
28.286830902 23.445262862 -9.3678569794 157 167 127
28.402704239 23.445262862 -8.918759346 157 167 127
28.575717926 23.445262862 -8.2495317459 157 167 127
29.046012878 23.445262862 -7.3535003662 157 167 127
37.032146454 23.445262862 -6.1148271561 157 167 127
37.291614532 23.445262862 -6.8086013794 157 167 127
37.381004333 23.445262862 -14.410551071 157 167 127
37.435195923 23.445262862 -21.741415024 157 167 127
37.051551819 23.445262862 -24.534267426 157 167 127
32.911132812 23.445262862 -24.935438156 157 167 127
31.381523132 23.445262862 -24.842813492 157 167 127
29.815181732 23.445262862 -24.716463089 157 167 127
28.853504181 23.445262862 -24.420930862 157 167 127
28.442510605 23.445262862 -23.525535583 157 167 127
28.403064728 23.445262862 -23.079122543 157 167 127
-37.340766907 -11.264837265 -7.6527393394 105 185 185
-37.189060211 -13.919136047 -7.6527393394 105 185 185
-37.061847687 -15.274600029 -7.6527393394 105 185 185
-36.976715088 -15.926246643 -7.6527393394 105 185 185
-36.795379639 -16.740123749 -7.6527393394 105 185 185
-35.142368317 -19.971317291 -7.6527393394 105 185 185
-33.895870209 -21.056043625 -7.6527393394 105 185 185
-32.44209671 -22.055345535 -7.6527393394 105 185 185
-31.559700012 -22.485635757 -7.6527393394 105 185 185
-28.104948044 -23.025220871 -7.6527393394 105 185 185
-26.79302597 -23.215198517 -7.6527393394 105 185 185
-21.46055603 -23.292007446 -7.6527393394 105 185 185
2.7979979515 -23.277090073 -7.6527393394 105 185 185
10.734704018 -23.158891678 -7.6527393394 105 185 185
21.158241272 -22.912796021 -7.6527393394 105 185 185
26.688102722 -22.721529007 -7.6527393394 105 185 185
27.394683838 -22.608945847 -7.6527393394 105 185 185
27.602214813 -21.438232422 -7.6527393394 105 185 185
27.738618851 -20.27599144 -7.6527393394 105 185 185
27.867435455 0.42506980896 -7.6527393394 105 185 185
27.949541092 18.610074997 -7.6527393394 105 185 185
27.908010483 21.180738449 -7.6527393394 105 185 185
27.442363739 22.20995903 -7.6527393394 105 185 185
26.670707703 23.220298767 -7.6527393394 105 185 185
15.026265144 23.369251251 -7.6527393394 105 185 185
-22.737808228 23.414405823 -7.6527393394 105 185 185
-24.48598671 23.28266716 -7.6527393394 105 185 185
-27.730796814 22.991987228 -7.6527393394 105 185 185
-31.843816757 22.104341507 -7.6527393394 105 185 185
-32.702060699 21.666751862 -7.6527393394 105 185 185
-34.183956146 20.855920792 -7.6527393394 105 185 185
-35.657211304 19.16254425 -7.6527393394 105 185 185
-37.190719604 15.329351425 -7.6527393394 105 185 185
-37.333843231 3.2025513649 -7.6527393394 105 185 185
28.090708167 -23.381235123 -12.28231144 217 148 165
28.090708167 -23.361309052 -17.733974457 217 148 165
28.090708167 -23.117540359 -22.438873291 217 148 165
28.090708167 -22.194383621 -26.581407547 217 148 165
28.090708167 -21.576246262 -27.457258224 217 148 165
28.090708167 -20.648763657 -28.616264343 217 148 165
28.090708167 -19.718658447 -29.772172928 217 148 165
28.090708167 -16.945518494 -30.949935913 217 148 165
28.090708167 -15.604678154 -31.391033173 217 148 165
28.090708167 -13.772253036 -31.679822922 217 148 165
28.090708167 -1.5223062038 -31.905315399 217 148 165
28.090708167 8.0707321167 -31.820468903 217 148 165
28.090708167 14.001099586 -31.625976562 217 148 165
28.090708167 16.338838577 -31.209316254 217 148 165
28.090708167 17.216730118 -30.942380905 217 148 165
28.090708167 20.059326172 -29.32649231 217 148 165
28.090708167 21.270038605 -27.783658981 217 148 165
28.090708167 21.686471939 -27.053947449 217 148 165
28.090708167 22.347934723 -25.829465866 217 148 165
28.090708167 22.845375061 -23.680780411 217 148 165
28.090708167 23.102571487 -22.218183517 217 148 165
28.090708167 23.079210281 -18.225589752 217 148 165
28.090708167 22.831068039 -8.2679405212 217 148 165
28.090708167 22.666456223 -7.7891039848 217 148 165
28.090708167 -17.950683594 -7.751183033 217 148 165
28.090708167 -20.056581497 -7.915143013 217 148 165
28.090708167 -21.66878891 -8.0490694046 217 148 165
28.090708167 -22.561552048 -8.5470275879 217 148 165
28.090708167 -23.200433731 -11.449008942 217 148 165
28.59677124 22.98296809 -25.519594928 204 104 106
28.664499283 22.406991523 -26.813259479 204 104 106
28.97155571 22.152213231 -27.385500893 204 104 106
29.89522171 22.01376278 -27.696465697 204 104 106
36.735015869 21.780635623 -28.220077864 204 104 106
37.069080353 22.746835824 -26.049956681 204 104 106
36.776416779 23.009514953 -25.459969697 204 104 106
36.464031219 23.287393765 -24.835843668 204 104 106
34.990276337 23.323103647 -24.755637959 204 104 106
29.455131531 23.230247111 -24.964197153 204 104 106
29.205049515 23.194417516 -25.044671741 204 104 106
28.606357574 23.066459924 -25.3320692 204 104 106
10.345419496 15.051577311 11.346566967 166 184 100
8.9761002574 15.028869257 11.962879571 166 184 100
8.4450970612 15.007134707 12.942532412 166 184 100
9.830974756 14.966192562 15.980876706 166 184 100
14.326315961 14.892512579 22.449253231 166 184 100
14.905849731 14.8892678 22.924873177 166 184 100
15.774978055 14.895345182 23.011227999 166 184 100
19.072098134 14.977944553 19.927665085 166 184 100
22.530070361 15.073187624 16.200189606 166 184 100
22.879895465 15.088511022 15.497238737 166 184 100
23.244492228 15.106445866 14.652068851 166 184 100
21.562093779 15.105112655 13.887342457 166 184 100
15.971417022 15.079270046 12.572789094 166 184 100
10.955117743 15.056040108 11.395717542 166 184 100
28.451015472 20.882731043 -28.999029719 148 108 152
28.581451416 20.00884112 -29.872919642 148 108 152
29.069639206 19.74196776 -30.139793001 148 108 152
29.959402084 19.506670557 -30.375090204 148 108 152
32.985931396 19.458390795 -30.423369967 148 108 152
36.529201508 19.61415156 -30.267609202 148 108 152
37.130992889 19.816163622 -30.06559714 148 108 152
37.115085602 20.650863253 -29.230897509 148 108 152
36.991279602 21.273583018 -28.608177744 148 108 152
35.281776428 21.726954066 -28.154806696 148 108 152
30.81137085 21.847914301 -28.033846461 148 108 152
29.275096893 21.889259897 -27.992500864 148 108 152
28.647190094 21.69430884 -28.187451922 148 108 152
-6.5041204137 14.725916916 2.0059376809 186 174 217
-9.2937729033 14.082874594 1.8978213742 186 174 217
-10.508032397 13.777212144 1.95510975 186 174 217
-11.693921453 13.406844513 2.3020544049 186 174 217
-10.429339187 13.284541625 4.0270488116 186 174 217
-0.6958716547 13.203286722 13.820679461 186 174 217
5.0397566838 13.169293853 19.535510264 186 174 217
9.5483410115 13.172401755 23.906934384 186 174 217
12.130941933 13.212898863 26.254155955 186 174 217
14.47223961 14.26312838 24.277110983 186 174 217
15.128094476 14.575011951 23.651649882 186 174 217
11.981516914 14.88906607 19.320026683 186 174 217
10.102018746 14.938455555 17.292421304 186 174 217
-0.095927940042 15.05759619 6.8936998432 186 174 217
-3.2539297101 15.080015799 3.7321497366 186 174 217
-5.6062776859 14.84033385 2.4155600793 186 174 217
-3.6508861659 11.757905533 13.378837774 206 166 111
-3.187376825 11.388082484 14.502749374 206 166 111
-1.9694260352 11.180204056 16.086176129 206 166 111
0.44396673753 10.769613551 19.221391237 206 166 111
3.290649258 10.454538657 22.616017355 206 166 111
6.6229773817 10.280874167 26.239796366 206 166 111
9.0763524065 10.181851275 28.85603981 206 166 111
10.224806167 11.080788154 28.385604813 206 166 111
12.367765427 13.270085552 26.589794148 206 166 111
4.996537853 13.037345392 19.680100211 206 166 111
1.6239951638 12.86874651 16.630106689 206 166 111
-0.61772622926 12.397155876 15.247493243 206 166 111
-2.8869905051 11.919084113 13.849124173 206 166 111
28.57169342 16.718980054 -31.700764118 182 152 188
30.992528915 16.351021689 -31.868452406 182 152 188
32.088684082 16.261769231 -31.909127094 182 152 188
36.972305298 16.306693756 -31.888653809 182 152 188
37.192592621 17.910429902 -31.15778914 182 152 188
37.108947754 18.835566176 -30.73618025 182 152 188
36.758247375 19.086588345 -30.621782857 182 152 188
35.92193222 19.376669423 -30.489585294 182 152 188
34.46396637 19.406719671 -30.475890606 182 152 188
29.302476883 19.219347804 -30.561280886 182 152 188
28.646995544 18.949515329 -30.684250629 182 152 188
35.686438593 16.297275033 -31.862348806 214 196 133
29.429517496 16.294192416 -31.881648798 214 196 133
28.72943971 15.915461998 -31.910242355 214 196 133
28.693899593 13.567050897 -32.074411361 214 196 133
29.04097336 12.93168741 -32.117739386 214 196 133
30.627980153 12.881420713 -32.116410398 214 196 133
37.102304641 12.679177983 -32.110791371 214 196 133
37.143318005 15.436107687 -31.918066456 214 196 133
28.169837952 7.1933259964 -32.045255672 105 192 141
28.211893082 -11.16941452 -32.045255672 105 192 141
28.416627884 -15.224643707 -32.045255672 105 192 141
29.057798386 -15.978733063 -32.045255672 105 192 141
31.822460175 -16.11980629 -32.045255672 105 192 141
32.510883331 -16.151857376 -32.045255672 105 192 141
36.679130554 -15.628473282 -32.045255672 105 192 141
37.226360321 -12.439678192 -32.045255672 105 192 141
37.25894928 1.0836793184 -32.045255672 105 192 141
37.236602783 7.2061986923 -32.045255672 105 192 141
37.189712524 9.6555051804 -32.045255672 105 192 141
36.99905014 11.761227608 -32.045255672 105 192 141
36.921897888 11.938874245 -32.045255672 105 192 141
36.081764221 12.36698246 -32.045255672 105 192 141
28.616846085 12.635435104 -32.045255672 105 192 141
28.538127899 11.699102402 -32.045255672 105 192 141
28.461763382 10.778069496 -32.045255672 105 192 141
28.387113571 9.8689041138 -32.045255672 105 192 141
-30.506116325 23.154242094 -7.4517655373 179 195 224
-33.082313415 22.007245251 -7.2813429832 179 195 224
-33.334936998 21.894769985 -7.0134143829 179 195 224
-33.597722565 21.777770312 -6.2423467636 179 195 224
-33.822297006 21.677783329 -3.5273892879 179 195 224
-33.706579258 21.72930419 0.54971200228 179 195 224
-33.091526476 22.003143332 1.0047413111 179 195 224
-31.483419393 22.719118734 1.3257603645 179 195 224
-30.474733104 23.168214804 1.2148543596 179 195 224
-30.146179916 23.314496108 0.52378541231 179 195 224
-30.113655907 23.32897673 -1.1606156826 179 195 224
-30.05416764 23.355462613 -4.3650026321 179 195 224
-30.143133671 23.315852384 -6.3454899788 179 195 224
-30.190832558 23.294615471 -7.2687811852 179 195 224
-34.983495155 20.329780478 -7.3410339355 146 131 223
-36.075490536 19.116996741 -7.1114821434 146 131 223
-36.25668103 18.91576431 -2.3474245071 146 131 223
-36.240427545 18.933815635 -0.31346669793 146 131 223
-35.995986764 19.205294625 0.82386380434 146 131 223
-35.565788766 19.683077906 1.4307848215 146 131 223
-33.959979681 21.466509572 1.3951200247 146 131 223
-33.795660817 21.649004159 -1.4875142574 146 131 223
-33.749782494 21.699957198 -5.4450120926 146 131 223
-34.174854549 21.227866855 -7.259768486 146 131 223
-23.499429718 14.452960069 -5.6335965362 191 194 182
-23.599232127 14.127357576 -6.6831321956 191 194 182
-23.965803585 12.81087498 -6.8463922795 191 194 182
-24.29646944 11.618847438 -6.8560387291 191 194 182
-24.378402317 11.293710531 -5.9466581262 191 194 182
-24.2213873 11.697655076 -0.97867093681 191 194 182
-24.068400608 12.207930082 0.2884013034 191 194 182
-23.936304535 12.655055039 1.1825194663 191 194 182
-23.82996703 13.03596218 1.2601019275 191 194 182
-23.562932953 14.004806741 1.0778740736 191 194 182
-23.508845817 14.24247692 -0.22781565446 191 194 182
-37.47723673 15.562380124 -1.8704066628 109 179 211
-37.446574563 15.594078075 -3.9297565736 109 179 211
-37.424952101 15.628270986 -4.9179466069 109 179 211
-37.3352425 15.825344078 -6.8540918103 109 179 211
-36.96325553 16.836735788 -7.270858996 109 179 211
-36.619631505 17.775390317 -7.4842465109 109 179 211
-36.164685487 19.028274117 -7.3694194071 109 179 211
-36.358779992 18.710290109 1.0679993801 109 179 211
-36.784402156 17.548358693 1.3602070296 109 179 211
-37.338861785 16.020234191 1.1736865041 109 179 211
-26.336663427 9.9780777387 -7.2039575577 134 154 196
-26.939564242 9.5790263946 -5.6539039612 134 154 196
-26.784171785 9.6818784181 0.068915300071 134 154 196
-26.077037483 10.149920402 0.67054671049 134 154 196
-24.994589209 10.866377285 1.3266580105 134 154 196
-24.535607854 11.170170418 -0.23138649762 134 154 196
-24.809017018 10.989204839 -7.177875042 134 154 196
-37.507281475 11.337272805 -7.4015564919 160 129 134
-37.518124438 10.71607986 -4.3209233284 160 129 134
-37.531530527 9.9480455246 0.49033549428 160 129 134
-37.532102559 9.9152738345 1.1039545536 160 129 134
-37.461731011 13.946857117 1.5373617411 160 129 134
-37.4465359 14.817384443 1.4582015276 160 129 134
-37.432688773 15.610685821 0.23977710307 160 129 134
-37.433773183 15.548560011 -5.8813033104 160 129 134
-37.441809975 15.088132508 -6.8432435989 160 129 134
-37.450917429 14.566366816 -7.0610375404 160 129 134
-28.103666799 9.6673725873 -7.2814745903 145 120 161
-28.881546924 9.6877420952 -7.1251616478 145 120 161
-29.443791975 9.7024650001 -6.5529174805 145 120 161
-29.698676503 9.7091393863 0.030766600743 145 120 161
-29.178838321 9.6955269444 1.3865760565 145 120 161
-27.195036812 9.6435792737 1.071054697 145 120 161
-27.040252434 9.6395261021 -2.534263134 145 120 161
-27.021962491 9.6390471631 -3.5394306183 145 120 161
-27.093252971 9.64091397 -6.8483729362 145 120 161
-27.500333696 9.651573754 -7.0679802895 145 120 161
-31.0154953 -23.413034038 -6.78162794 213 214 107
-30.699903488 -23.451544329 -5.6788375063 213 214 107
-29.880815506 -23.486867944 -4.6673015019 213 214 107
-29.065940857 -23.52200464 -3.6611181739 213 214 107
-28.203584671 -23.526360634 -3.5363788282 213 214 107
-27.361139297 -23.530120508 -3.4287101187 213 214 107
37.160766602 -23.407772903 -6.9322871349 213 214 107
37.148658752 -23.356126675 -8.4112415912 213 214 107
36.796298981 -23.338091422 -8.9277036855 213 214 107
32.890434265 -23.336592838 -8.9706174927 213 214 107
-36.104576018 -13.980314946 1.7346540677 213 163 165
-36.291447588 -5.0960275459 1.7284745401 213 163 165
-37.031574767 11.787117764 1.6419047542 213 163 165
-37.447682341 13.541389791 1.5669851539 213 163 165
-37.564606254 8.7349294678 1.5279554531 213 163 165
-37.598373104 6.2528572568 1.51297265 213 163 165
-37.566444495 -11.564343933 1.4587348502 213 163 165
-36.727137373 -17.0536656 1.6032327825 213 163 165
-36.217985501 -18.180810208 1.6983630773 213 163 165
-36.185584798 -17.996049749 1.7052869589 213 163 165
-37.490149578 -16.014415741 -3.5781087875 140 224 162
-37.490149578 -15.715447426 -7.4184293747 140 224 162
-37.490149578 -14.764411926 -7.4508895874 140 224 162
-37.490149578 -5.0656080246 -7.4562687874 140 224 162
-37.490149578 3.5569431782 -7.4242577553 140 224 162
-37.490149578 11.252659798 -7.2866430283 140 224 162
-37.490149578 10.966053009 -4.8913621902 140 224 162
-37.490149578 9.8280754089 -0.419275105 140 224 162
-37.490149578 9.0953674316 0.5508928895 140 224 162
-37.490149578 5.2111873627 1.1205271482 140 224 162
-37.490149578 3.0460045338 1.2500555515 140 224 162
-37.490149578 -1.5553735495 1.4075204134 140 224 162
-37.490149578 -7.2993788719 1.4763581753 140 224 162
-37.490149578 -12.444353104 1.1786552668 140 224 162
-37.490149578 -15.76294899 0.97682160139 140 224 162
-24.202027842 -16.458689241 1.3952748524 133 111 219
-24.174694612 -16.435978874 -1.0993085697 133 111 219
-24.077166819 -16.225352363 -6.7861226224 133 111 219
-23.861154139 -15.277873018 -7.4530576489 133 111 219
-23.61616519 -14.130749464 -6.4101580325 133 111 219
-23.551338151 -13.762363905 -4.525994169 133 111 219
-23.521063489 -13.587696876 -3.5808862491 133 111 219
-23.611181087 -13.825659915 0.59894367075 133 111 219
-23.975585035 -15.448812767 1.1090399611 133 111 219
37.489004475 -23.360963821 -15.039865494 109 163 148
37.489004475 -23.127893448 -22.247901917 109 163 148
37.489004475 -22.61318779 -25.509414673 109 163 148
37.489004475 -22.001182556 -26.849153519 109 163 148
37.489004475 -21.361610413 -28.199325562 109 163 148
37.489004475 -18.654165268 -30.431653976 109 163 148
37.489004475 -16.505657196 -31.342679977 109 163 148
37.489004475 -12.74855423 -31.811737061 109 163 148
37.489004475 -6.3700451851 -31.927598953 109 163 148
37.489004475 1.6963362694 -32.023151398 109 163 148
37.489004475 7.1341466904 -31.95318985 109 163 148
37.489004475 11.507579803 -31.871517181 109 163 148
37.489004475 15.459600449 -31.551366806 109 163 148
37.489004475 16.192893982 -31.405405045 109 163 148
37.489004475 17.624488831 -31.025304794 109 163 148
37.489004475 18.774570465 -30.376600266 109 163 148
37.489004475 20.353380203 -29.389108658 109 163 148
37.489004475 21.25825882 -28.251451492 109 163 148
37.489004475 22.71159935 -25.238391876 109 163 148
37.489004475 22.8711586 -24.452430725 109 163 148
37.489004475 23.221759796 -22.665250778 109 163 148
37.489004475 23.317253113 -16.598051071 109 163 148
37.489004475 23.278146744 -8.0695772171 109 163 148
37.489004475 23.089477539 -2.3085532188 109 163 148
37.489004475 22.867210388 0.15342229605 109 163 148
37.489004475 22.475919724 1.2653815746 109 163 148
37.489004475 13.238206863 1.8717230558 109 163 148
37.489004475 7.9131755829 1.8692177534 109 163 148
37.489004475 -13.11771965 1.8590539694 109 163 148
37.489004475 -14.30357933 1.8101782799 109 163 148
37.489004475 -22.406938553 1.3346823454 109 163 148
37.489004475 -23.187524796 0.60098558664 109 163 148
37.489004475 -23.225254059 -0.097006596625 109 163 148
37.489004475 -23.259244919 -0.79100030661 109 163 148
-28.708750222 18.68737346 -2.7279987446 134 215 166
-29.013924786 18.58770477 -5.8943318622 134 215 166
-30.304247269 17.931575028 -7.4091664646 134 215 166
-30.759144146 17.692208617 -7.5359578136 134 215 166
-31.313378263 17.371845482 -6.2373833161 134 215 166
-31.616304183 17.109147781 -1.0965718639 134 215 166
-31.568722285 17.102796161 0.50448178948 134 215 166
-29.180892703 18.363069958 0.97783266317 134 215 166
-32.273328744 15.47172898 -7.307261467 158 218 106
-32.583696034 14.59527879 -5.7935357094 158 218 106
-32.663268477 14.370573145 -5.0733094215 158 218 106
-32.719876858 14.210716009 -3.3479468822 158 218 106
-32.712721166 14.230923058 -0.2349652946 158 218 106
-32.171340235 15.759735647 1.0677919388 158 218 106
-31.926899818 16.450014089 0.46101140976 158 218 106
-31.760552794 16.919763595 -2.2806708813 158 218 106
-31.814255122 16.768112897 -5.0042467117 158 218 106
-31.905545439 16.510316995 -6.6059775352 158 218 106
28.651546478 -18.635582127 -30.819960132 195 197 204
28.895751953 -19.324141316 -30.513393829 195 197 204
29.598344803 -19.355680834 -30.499351531 195 197 204
31.204574585 -19.352366495 -30.50082717 195 197 204
35.075317383 -19.171972065 -30.581143945 195 197 204
37.18303299 -18.984095157 -30.664792134 195 197 204
37.216091156 -17.673791716 -31.248176812 195 197 204
36.618759155 -16.360344281 -31.832961287 195 197 204
33.200187683 -16.211099367 -31.899409404 195 197 204
30.44616127 -16.095309088 -31.950962557 195 197 204
29.014936447 -16.68463984 -31.688575602 195 197 204
28.711259842 -21.018649587 -28.881520932 115 101 186
28.804794312 -21.542300412 -28.375837208 115 101 186
28.919315338 -21.722685603 -28.201641254 115 101 186
30.342184067 -21.778440386 -28.147799486 115 101 186
33.160003662 -21.859273599 -28.06973976 115 101 186
36.598480225 -21.335206387 -28.575825583 115 101 186
36.88690567 -21.144641514 -28.759851943 115 101 186
37.242313385 -20.749736403 -29.141207375 115 101 186
37.215236664 -20.179389574 -29.691984905 115 101 186
37.183898926 -19.605825206 -30.245869577 115 101 186
35.130748749 -19.541204007 -30.308273544 115 101 186
33.066226959 -19.478439572 -30.368884454 115 101 186
32.375667572 -19.458420007 -30.388217123 115 101 186
30.296459198 -19.401437562 -30.443244431 115 101 186
28.889844894 -19.901326093 -29.960507688 115 101 186
-31.484500453 -10.926516547 0.47745107157 209 179 192
-31.643969588 -11.174239309 -4.3790200547 209 179 192
-31.765406211 -11.386587027 -6.9507858824 209 179 192
-32.087032816 -12.081977289 -7.4428422659 209 179 192
-32.795830261 -13.65411183 -6.6435467111 209 179 192
-32.686652807 -13.554641699 0.013786120093 209 179 192
-32.423830301 -12.996916624 0.91599776628 209 179 192
28.311576843 -22.689545736 -26.18666142 191 225 211
28.555786133 -23.149554436 -25.222233125 191 225 211
29.429933548 -23.194124424 -25.128790202 191 225 211
33.264095306 -23.209388211 -25.096789007 191 225 211
34.867843628 -23.065864217 -25.397693317 191 225 211
36.923454285 -22.877395864 -25.792825437 191 225 211
37.39257431 -22.04835042 -27.530955356 191 225 211
36.672641754 -21.909594812 -27.821862537 191 225 211
33.867786407 -21.843965107 -27.959458074 191 225 211
31.755952835 -21.803009594 -28.045323093 191 225 211
31.052865982 -21.7970077 -28.057906326 191 225 211
29.143861771 -22.094340605 -27.434534927 191 225 211
28.961439133 -22.177517263 -27.260151437 191 225 211
28.207155228 -23.346862924 -23.292708405 129 138 144
28.409326553 -23.509507242 -21.745251086 129 138 144
28.642290115 -23.584700398 -21.029835991 129 138 144
35.375389099 -23.495059218 -21.882714851 129 138 144
36.848209381 -23.471990799 -22.102196193 129 138 144
37.02362442 -23.37485741 -23.026358657 129 138 144
36.587165833 -23.156142724 -25.107289893 129 138 144
35.73387146 -23.141261181 -25.248878323 129 138 144
28.393230438 -23.175700373 -24.921211294 129 138 144
28.249019623 -23.267154303 -24.051085275 129 138 144
28.185165405 -23.447421564 -15.333557129 164 174 206
28.596704483 -23.447421564 -9.5070571899 164 174 206
29.613357544 -23.447421564 -9.1153860092 164 174 206
32.023078918 -23.447421564 -9.0745620728 164 174 206
36.461711884 -23.447421564 -9.4132289886 164 174 206
36.627655029 -23.447421564 -9.593419075 164 174 206
37.201000214 -23.447421564 -13.81289959 164 174 206
37.431049347 -23.447421564 -15.698658943 164 174 206
37.354492188 -23.447421564 -17.011638641 164 174 206
37.225597382 -23.447421564 -18.320297241 164 174 206
36.857704163 -23.447421564 -21.804174423 164 174 206
33.230083466 -23.447421564 -21.651971817 164 174 206
29.609567642 -23.447421564 -21.19262886 164 174 206
28.581293106 -23.447421564 -20.382106781 164 174 206
28.44562912 -23.447421564 -19.491817474 164 174 206
-30.02428627 -23.446537763 -2.9354977608 151 206 133
-29.480340958 -23.446537763 0.58564180136 151 206 133
-29.189710617 -23.446537763 0.7129176259 151 206 133
-27.540681839 -23.446537763 1.3489156961 151 206 133
-22.738759995 -23.446537763 1.4618111849 151 206 133
-16.897277832 -23.446537763 1.5234552622 151 206 133
33.832054138 -23.446537763 1.5541297197 151 206 133
34.688617706 -23.446537763 1.5410186052 151 206 133
35.540939331 -23.446537763 1.4996676445 151 206 133
36.389751434 -23.446537763 1.4447840452 151 206 133
37.117038727 -23.446537763 -0.44695618749 151 206 133
37.423530579 -23.446537763 -3.5460801125 151 206 133
37.387924194 -23.446537763 -4.2289071083 151 206 133
37.257537842 -23.446537763 -6.2660303116 151 206 133
36.84954071 -23.446537763 -6.670586586 151 206 133
36.011119843 -23.446537763 -6.7883734703 151 206 133
34.311511993 -23.446537763 -7.0110664368 151 206 133
-29.947965622 -23.446537763 -3.7924706936 151 206 133
-25.284635544 -23.380567661 -7.490229575 152 167 158
-24.427194595 -23.453214382 -7.3883826292 152 167 158
-23.581224442 -23.503463059 -7.3179365822 152 167 158
-15.871833801 -23.555901076 -7.2444211933 152 167 158
-10.739531517 -23.560499325 -7.2379746866 152 167 158
-8.9952850342 -23.553577014 -7.2476794076 152 167 158
-8.7582473755 -23.503927437 -7.3172855478 152 167 158
-7.8995800018 -23.315401634 -7.5815889756 152 167 158
-10.480622292 -23.237610229 -7.6906485032 152 167 158
-18.94585228 -23.221624417 -7.7130597854 152 167 158
-23.157413483 -23.230580908 -7.700503248 152 167 158
-37.088947296 15.017471313 1.6510648138 136 122 119
-36.747886658 -11.441287041 1.6510648138 136 122 119
-36.655147552 -12.546629906 1.6510648138 136 122 119
-35.171386719 -19.72924614 1.6510648138 136 122 119
-34.773639679 -20.177148819 1.6510648138 136 122 119
-33.466239929 -21.275295258 1.6510648138 136 122 119
-32.061618805 -22.198184967 1.6510648138 136 122 119
-29.908500671 -22.990444183 1.6510648138 136 122 119
-27.899244308 -23.21969223 1.6510648138 136 122 119
-8.3117294312 -23.314483643 1.6510648138 136 122 119
19.085674286 -23.361185074 1.6510648138 136 122 119
36.65738678 -23.05166626 1.6510648138 136 122 119
37.44708252 -17.086120605 1.6510648138 136 122 119
37.158302307 19.303262711 1.6510648138 136 122 119
36.673397064 22.543714523 1.6510648138 136 122 119
36.466060638 22.666347504 1.6510648138 136 122 119
35.387397766 23.030595779 1.6510648138 136 122 119
34.572216034 23.286283493 1.6510648138 136 122 119
32.639705658 23.327356339 1.6510648138 136 122 119
-21.520830154 23.267347336 1.6510648138 136 122 119
-26.594093323 23.245573044 1.6510648138 136 122 119
-29.13184166 23.221483231 1.6510648138 136 122 119
-31.91878891 22.135906219 1.6510648138 136 122 119
-32.983230591 21.640766144 1.6510648138 136 122 119
-33.682548523 21.081962585 1.6510648138 136 122 119
-35.030479431 19.706785202 1.6510648138 136 122 119
-35.713863373 18.699287415 1.6510648138 136 122 119
-36.674816132 16.689668655 1.6510648138 136 122 119
19.352257082 -14.822067261 19.841823885 172 201 104
25.444784472 -14.492990494 13.749296496 172 201 104
25.980523417 -14.225895882 13.213557551 172 201 104
26.340096781 -13.832176208 12.853984187 172 201 104
26.542949984 -13.248271942 12.651130984 172 201 104
26.842487643 -5.1598176956 12.351593325 172 201 104
26.839923212 7.7776885033 12.354157755 172 201 104
26.812339613 8.8289365768 12.381741354 172 201 104
26.765858481 9.9086179733 12.428222487 172 201 104
26.553080389 13.683836937 12.641000578 172 201 104
26.392660448 14.531881332 12.801420519 172 201 104
26.31215174 14.623265266 12.881929228 172 201 104
23.477569888 14.727550507 15.71651108 172 201 104
18.570873568 14.795807838 20.6232074 172 201 104
15.820389101 14.672872543 23.373691866 172 201 104
13.197555849 13.233419418 25.996525118 172 201 104
11.284177611 11.550185204 27.909903357 172 201 104
10.486155817 10.497653008 28.70792515 172 201 104
9.1791837906 8.2901830673 30.014897177 172 201 104
8.5505336022 7.2262387276 30.643547366 172 201 104
7.9197123741 5.2893819809 31.274368594 172 201 104
7.306242535 1.6892377138 31.887838433 172 201 104
7.3071785664 0.00028529998963 31.886902401 172 201 104
7.742430756 -3.8699502945 31.451650212 172 201 104
7.953447411 -4.7905330658 31.240633557 172 201 104
8.2641123032 -6.0621232986 30.929968665 172 201 104
10.131387541 -10.187983513 29.062693427 172 201 104
10.451485464 -10.74195385 28.742595503 172 201 104
12.01236088 -12.250516891 27.181720087 172 201 104
14.839375803 -14.081899643 24.354705164 172 201 104
18.797070811 -14.816355705 20.397010157 172 201 104
7.7822606107 6.3472933202 31.02313705 167 162 220
8.8785850495 8.9446939857 29.625178539 167 162 220
9.0487952208 9.6603306562 29.109470183 167 162 220
7.8528861394 9.9323854474 27.665301263 167 162 220
4.7444113734 10.261823378 24.272662376 167 162 220
1.5817271308 10.591880645 20.825759272 167 162 220
-7.8704533777 10.376018717 11.67367376 167 162 220
-12.784075644 10.263438387 6.9164034581 167 162 220
-17.843755912 10.135782973 2.0289366477 167 162 220
-18.365229132 9.6426978268 1.984079373 167 162 220
-19.468434481 8.558311561 1.9286090905 167 162 220
-19.954923055 8.0774198106 1.906731343 167 162 220
-20.677562482 7.1255255338 2.1013765571 167 162 220
-16.768241927 6.8479803991 6.2373063933 167 162 220
-7.2426838011 6.5855442481 15.919350153 167 162 220
5.6637761624 6.3786826921 28.895642773 167 162 220
37.290694787 15.331807734 1.7570167787 194 169 212
34.116487327 15.053158287 4.9964079484 194 169 212
33.613541938 14.995638383 5.5102749324 194 169 212
33.09638171 14.873775697 6.0414492844 194 169 212
32.573994062 14.738069087 6.5785525302 194 169 212
32.044435425 14.581682272 7.1238640235 194 169 212
31.508313265 14.409791643 7.6765364232 194 169 212
31.427745495 12.101477783 7.8609048243 194 169 212
35.46201647 12.038097343 3.7623214886 194 169 212
36.294339632 12.161150352 2.9106874164 194 169 212
37.021270971 12.606280956 2.1519025766 194 169 212
37.238069905 14.277006752 1.8573371635 194 169 212
27.694071759 -14.624922752 5.2584667354 178 206 120
29.624364442 -14.163047791 7.0902460949 178 206 120
30.60871537 -13.50722599 8.0243602475 178 206 120
30.790122784 -12.880415916 8.1965094553 178 206 120
30.876018599 11.354607582 8.2780215402 178 206 120
30.802201593 14.094150543 8.2079718173 178 206 120
30.195956067 14.519093513 7.6326662943 178 206 120
28.868340182 13.808934212 6.3728058612 178 206 120
28.385270161 12.142720222 5.914389528 178 206 120
7.0248469149 2.9795387359 31.819489965 126 190 116
7.489246123 5.3501844283 31.275141638 126 190 116
7.3488518459 6.0571407055 30.832655942 126 190 116
-7.922795657 6.548180269 15.282066272 126 190 116
-18.969811775 6.8442981387 4.0584664273 126 190 116
-19.740915417 6.5287796557 3.4183902526 126 190 116
-20.963673641 6.0230548333 2.405707857 126 190 116
-21.328934381 5.8396010109 2.1170096518 126 190 116
-22.757778979 3.1354733019 1.8347192277 126 190 116
-22.833357096 2.9651856953 1.8314089014 126 190 116
-23.010428136 2.0740709836 2.0335099652 126 190 116
-23.054427809 1.5828956932 2.1987510567 126 190 116
-18.530851018 1.5557520788 6.7545059679 126 190 116
-2.7312322618 1.8760272557 22.48952042 126 190 116
6.0101436461 2.2204430421 31.123849585 126 190 116
6.6990709653 2.6761757316 31.621586654 126 190 116
36.774535844 -14.657000542 2.4195451235 111 134 100
37.146041224 -14.592209816 2.0480397438 111 134 100
37.431333849 -12.300026894 1.7627471184 111 134 100
37.395073781 11.145121574 1.7990071868 111 134 100
37.085258434 11.682420731 2.108822534 111 134 100
33.240577767 12.17147541 5.9535032009 111 134 100
32.853017399 12.19185257 6.3410635685 111 134 100
31.659793923 12.192473412 7.5342870449 111 134 100
31.324741671 11.079581261 7.8693392967 111 134 100
31.074863741 9.4786491394 8.1192172264 111 134 100
31.161957095 -11.287128448 8.0321238732 111 134 100
31.374551127 -14.405867577 7.8195298409 111 134 100
32.475478957 -14.517391205 6.7186020111 111 134 100
6.7655070641 1.0494976386 31.84132159 152 103 189
6.1678840131 2.1262040147 31.234325378 152 103 189
-16.204710076 1.4364889329 8.8686019922 152 103 189
-23.014590163 1.1498442444 2.0614826191 152 103 189
-23.120658287 -0.24658457347 1.9676045195 152 103 189
-20.510877521 -0.58963871737 4.5802795872 152 103 189
-11.662802366 -1.2654160167 13.433915029 152 103 189
-0.63083820394 -1.9086692306 24.4710725 152 103 189
2.1393816331 -2.0131725613 27.242098808 152 103 189
6.7006054504 -1.7342729033 31.80071512 152 103 189
16.743721742 6.2523291685 15.006478163 218 130 122
16.393607866 5.662853716 13.897995075 218 130 122
16.094898921 5.0684540998 12.835443116 218 130 122
15.863615037 4.4724709803 11.839362716 218 130 122
16.848080706 3.5462630933 11.656573201 218 130 122
20.205704625 3.1614780401 14.576011536 218 130 122
21.286287005 3.4076843397 15.988153007 218 130 122
21.378027544 3.9676323141 16.796457581 218 130 122
20.746201303 5.4192919278 18.008531042 218 130 122
18.05108599 6.4729468061 16.616317056 218 130 122
7.3154974518 -3.9820687852 31.545968509 140 211 182
6.8742938733 -2.6339008186 31.635620306 140 211 182
6.2772462183 -2.1250653184 31.23990039 140 211 182
-23.239740759 -0.74149297785 2.3330841052 140 211 182
-22.71350329 -3.2626500229 1.8672615461 140 211 182
-21.555638747 -5.8510092431 2.0052332368 140 211 182
-21.044856575 -6.0188007806 2.4489203238 140 211 182
-19.043760058 -6.5582780965 4.2334879742 140 211 182
-18.055549213 -6.6430970211 5.1861401127 140 211 182
-17.612272786 -6.6757867587 5.6155716059 140 211 182
-8.8299745665 -6.5942364098 14.410166971 140 211 182
7.1117965667 -6.2490852409 30.451732921 140 211 182
7.1841584531 -6.1262497539 30.572209392 140 211 182
7.3005955559 -4.4181955915 31.359691635 140 211 182
8.5142226695 -7.842642821 30.437605047 118 185 148
8.095394676 -7.3695291907 30.467696665 118 185 148
7.7062078355 -6.9637969552 30.46354203 118 185 148
6.5488906331 -6.6291914777 29.625103807 118 185 148
6.3501986646 -6.6108798258 29.444080471 118 185 148
2.8884176317 -6.3367948556 26.247544127 118 185 148
-2.1679121323 -6.4459357531 21.095939763 118 185 148
-10.003035875 -6.7617159195 12.974231188 118 185 148
-15.995075923 -7.4371300325 6.3519117915 118 185 148
-17.502423082 -7.7570905878 4.5438451487 118 185 148
-18.608315691 -8.3325836881 2.8944861387 118 185 148
-16.285235124 -9.1666061561 4.4236463458 118 185 148
-11.231024709 -9.6290499796 9.0315932312 118 185 148
-5.4780065777 -9.9465430156 14.474556268 118 185 148
1.4938104454 -10.296526227 21.103576122 118 185 148
8.1007470561 -10.490410056 27.516196839 118 185 148
8.383311698 -10.437025958 27.848885331 118 185 148
8.9298568333 -10.288458797 28.535310007 118 185 148
9.212578576 -9.7615036019 29.316834974 118 185 148
9.0689649356 -9.2771684524 29.63233015 118 185 148
-17.691701426 -10.093122802 2.0475056206 148 162 118
-17.51972418 -10.336603605 1.7866469874 148 162 118
-11.960903186 -13.473498205 1.8011638384 148 162 118
7.7040337369 -13.394005956 21.797089904 148 162 118
11.710033333 -13.347914814 25.923868221 148 162 118
11.692724298 -12.860026422 26.777026435 148 162 118
11.28487926 -12.38482433 27.213253882 148 162 118
9.8585542573 -10.849268598 28.513400021 148 162 118
9.4970665824 -10.660232382 28.485769511 148 162 118
5.9018706829 -10.429955391 25.266923139 148 162 118
-6.1456154864 -10.024704716 13.826732494 148 162 118
-8.656811859 -10.001093077 11.333518464 148 162 118
-11.117437414 -13.312617925 2.6961931432 173 206 174
-11.055000825 -13.448279179 2.251989277 173 206 174
-9.4974231842 -13.939957223 1.9743833925 173 206 174
-8.032336963 -14.284715578 2.1529529132 173 206 174
-6.3567868852 -14.635358012 2.5201734508 173 206 174
-4.6549244723 -14.777914213 3.6909201691 173 206 174
4.5600524372 -14.78370858 12.891433747 173 206 174
9.9257295036 -14.756246907 18.363858822 173 206 174
13.892345174 -14.722863051 22.458251752 173 206 174
14.484811671 -14.711831066 23.092383774 173 206 174
14.666354703 -14.666571013 23.443112625 173 206 174
14.578334411 -14.405338781 24.330715191 173 206 174
12.667062561 -13.467375339 25.921208578 173 206 174
11.99049792 -13.315850299 25.810056568 173 206 174
8.4410646306 -13.287372522 22.364221605 173 206 174
-6.1008021555 -13.251417544 7.9453171715 173 206 174
-10.314621161 -13.249468473 3.7354953372 173 206 174
-16.469109881 -7.4441137248 5.7812895521 220 170 118
-16.974405694 -6.9828350156 5.6925735981 220 170 118
-18.118168116 -6.6493554182 4.8607291933 220 170 118
-18.746598953 -6.6617234581 4.2299967876 220 170 118
-19.373236047 -6.6755717229 3.5997189579 220 170 118
-19.997464079 -6.6923372956 2.9692264406 220 170 118
-20.620562273 -6.7095643917 2.3394383375 220 170 118
-20.317898445 -7.6192461108 1.8301546005 220 170 118
-19.897455563 -8.0811579212 1.8346275671 220 170 118
-18.837454292 -9.1991802393 1.8872203553 220 170 118
-18.716494951 -9.2873519018 1.9282153575 220 170 118
-16.919047368 -9.1934224507 3.7842400724 220 170 118
18.848867704 -14.940829947 19.456860778 223 151 117
24.460926408 -15.050186827 12.927233998 223 151 117
25.489280349 -15.023473503 12.138443162 223 151 117
26.374728367 -14.910993345 12.239566575 223 151 117
26.364730087 -14.872270649 12.587180624 223 151 117
24.103543345 -14.844771948 15.073633688 223 151 117
22.334168885 -14.835557394 16.911989574 223 151 117
20.03776369 -14.841003429 19.146141172 223 151 117
-4.5087308884 -14.939971264 2.7570261955 171 131 161
-3.7125856876 -14.939971264 3.7865552902 171 131 161
0.36085748672 -14.939971264 8.0003023148 171 131 161
12.976329803 -14.939971264 20.279747009 171 131 161
13.262078285 -14.939971264 20.548498154 171 131 161
15.671522141 -14.939971264 22.643890381 171 131 161
17.700977325 -14.939971264 21.110170364 171 131 161
18.232275009 -14.939971264 20.688158035 171 131 161
34.59368515 -14.939971264 4.4362416267 171 131 161
35.287319183 -14.939971264 3.1812615395 171 131 161
35.463951111 -14.939971264 2.2539305687 171 131 161
34.550880432 -14.939971264 2.137362957 171 131 161
29.168348312 -14.939971264 1.9280605316 171 131 161
-0.014210999943 -14.939971264 1.9628595114 171 131 161
-2.5752570629 -14.939971264 2.0929815769 171 131 161
23.557521124 -14.805668831 7.6333477692 158 221 115
24.845078488 -14.720415115 6.3457904057 158 221 115
25.914942046 -14.532684326 5.2759268478 158 221 115
25.991447945 -14.400327682 5.1994209484 158 221 115
26.33156993 14.103393555 4.8592989639 158 221 115
25.718252201 14.844594002 5.472616692 158 221 115
25.138638754 14.679720879 6.0522301392 158 221 115
24.553346177 14.507306099 6.6375227169 158 221 115
23.958182831 14.31507206 7.2326860622 158 221 115
23.351007481 14.098379135 7.8398614124 158 221 115
23.355478545 13.111452103 7.8353903488 158 221 115
35.56464439 18.686167902 -23.301488914 125 140 179
30.922297112 18.550755997 -22.507972484 125 140 179
30.348657914 18.522423494 -22.357597611 125 140 179
29.188203137 18.37524425 -21.648061405 125 140 179
28.28225239 18.10181831 -20.379102844 125 140 179
36.823474486 18.032488159 -20.40259356 125 140 179
36.766601198 18.510717774 -22.55742712 125 140 179
29.40954228 18.616287065 -22.930084841 115 182 178
28.739846425 17.873193567 -25.011932944 115 182 178
29.600663426 17.815416654 -25.196296793 115 182 178
35.927909942 17.976006529 -24.898744428 115 182 178
36.807318648 18.265792522 -24.102116435 115 182 178
36.705198368 18.532456988 -23.346591341 115 182 178
-36.265294765 -18.817736698 -7.337808609 201 131 160
-37.331934364 -16.039045545 -7.0321412086 201 131 160
-37.426776965 -15.79197212 -6.0770115852 201 131 160
-37.383960227 -15.903513538 0.40385830402 201 131 160
-37.094908934 -16.6565179 1.4258872271 201 131 160
-36.624510311 -17.881948207 1.2400654554 201 131 160
-36.51135911 -18.176717164 0.81127297878 201 131 160
-36.195706322 -18.999020791 -3.5075933933 201 131 160
-36.19115767 -19.010870433 -4.8640460968 201 131 160
-36.19105996 -19.011124977 -6.1964869499 201 131 160
-25.314353222 -10.545166527 -7.312933445 149 125 103
-25.56730378 -10.221404577 -5.6249256134 149 125 103
-25.451640068 -10.369447378 -0.0038634000812 149 125 103
-24.09032858 -12.111846625 1.0486023426 149 125 103
-23.827472648 -12.448286875 -2.7210178375 149 125 103
-23.848515416 -12.421353361 -6.5406136513 149 125 103
-35.814116892 -19.375221122 -7.1161818504 213 153 117
-36.032866452 -19.127969723 -5.519077301 213 153 117
-36.139562347 -19.007371951 -4.692592144 213 153 117
-36.345640848 -18.774442579 0.55218911171 213 153 117
-36.026911811 -19.134700219 1.045159936 213 153 117
-34.842581043 -20.473342639 1.3392448425 213 153 117
-34.30142469 -21.085008626 0.85836499929 213 153 117
-34.050129921 -21.369045693 0.28024420142 213 153 117
-33.906394675 -21.531508835 -5.9319596291 213 153 117
-33.926253314 -21.509062727 -6.3760881424 213 153 117
-34.296570397 -21.090495406 -7.0814223289 213 153 117
-33.538722167 -21.718390572 -7.43430233 219 151 116
-33.625867276 -21.673025699 -7.1733255386 219 151 116
-33.718788234 -21.62465411 -6.7024855614 219 151 116
-33.910075177 -21.52507643 -5.0323290825 219 151 116
-33.937166484 -21.510973589 -1.5756224394 219 151 116
-33.695949193 -21.636543362 1.3010634184 219 151 116
-32.304160149 -22.36106288 1.4834220409 219 151 116
-31.361357065 -22.8518551 1.1550889015 219 151 116
-30.918349205 -23.082470396 -3.174996376 219 151 116
-30.833676044 -23.126548453 -4.8067746162 219 151 116
-31.225295206 -22.922684421 -6.0082149506 219 151 116
-31.55775268 -22.749618015 -6.7039718628 219 151 116
-31.905607423 -22.568536297 -7.318210125 219 151 116
-27.887365341 -23.465667101 -6.971443768 211 111 120
-27.750164032 -23.479245322 -7.3602731261 211 111 120
-15.026025772 -23.469747613 -7.0882943498 211 111 120
-12.486987114 -23.458641172 -6.7702474764 211 111 120
-11.639233589 -23.454860183 -6.6619741292 211 111 120
-15.967297554 -23.44345976 -6.3355087273 211 111 120
-21.135456085 -23.435995948 -6.1217731126 211 111 120
-21.979658127 -23.439700751 -6.2278647746 211 111 120
36.650969805 -9.6809271797 -21.280136913 108 146 131
33.711629833 -9.6554059193 -21.287582659 108 146 131
30.139466546 -9.6282729763 -21.519074198 108 146 131
29.16266995 -9.6220037657 -21.648267549 108 146 131
28.250237152 -9.626139507 -22.341359273 108 146 131
28.4890524 -9.6536083214 -23.795592689 108 146 131
33.332926425 -9.7024323984 -24.17095533 108 146 131
34.812735623 -9.7145409576 -24.12480773 108 146 131
36.268246221 -9.7264378351 -24.078681269 108 146 131
-12.520307618 13.252419361 1.882554309 117 198 157
-15.032754225 11.945965073 1.7279457796 117 198 157
-15.502327173 11.673809461 1.7492262506 117 198 157
-16.664203369 10.94930575 1.893519389 117 198 157
-16.807544331 10.739895295 2.1265598637 117 198 157
-17.02114454 10.38875221 2.543922226 117 198 157
-14.891091281 10.347528118 4.7351346658 117 198 157
-3.0499543161 10.479621414 16.268433541 117 198 157
-0.31223876819 10.605170898 18.764602161 117 198 157
0.41453184226 13.077310663 15.053886871 117 198 157
-1.5578122645 13.130880844 12.997298984 117 198 157
0.58165084134 15.002359085 1.8685061046 144 156 201
-4.4228878327 14.914608489 1.8911922705 144 156 201
-3.1319029455 14.910320541 3.4275995277 144 156 201
-1.5704777057 14.907366911 5.1579744821 144 156 201
3.5976294368 14.902940053 10.578870429 144 156 201
8.2421160428 14.903389774 15.196889059 144 156 201
10.924756257 14.907458467 17.646060928 144 156 201
18.516951704 15.117477068 13.206975019 144 156 201
16.676003721 15.122864949 11.057682912 144 156 201
8.5910905669 15.113168847 3.5294058589 144 156 201
6.784658864 15.096560888 2.6745736626 144 156 201
4.7183966807 15.069974543 2.1315248993 144 156 201
7.8691949844 15.045171854 2.1669671535 217 182 127
9.8470840454 15.045171854 4.4941163063 217 182 127
19.328481674 15.045171854 13.741844177 217 182 127
23.208738327 15.045171854 14.784467697 217 182 127
25.033426285 15.045171854 13.885238647 217 182 127
36.159755707 15.045171854 2.6972587109 217 182 127
35.078544617 15.045171854 2.0188922882 217 182 127
32.663589478 15.045171854 1.8862316608 217 182 127
17.301568985 15.045171854 1.947517395 217 182 127
13.576838946 -5.6287973321 23.920239129 185 214 131
12.645986077 -5.3472848103 23.640522582 185 214 131
11.703283405 -5.0627360374 23.3560027 185 214 131
7.2360298943 -5.0939670933 18.876209517 185 214 131
5.9947553808 -5.2060456938 17.396751432 185 214 131
4.7587471827 -5.3207198627 15.916599447 185 214 131
4.5679511548 -5.7454544221 14.764231568 185 214 131
4.4266595765 -6.1749569817 13.649899117 185 214 131
5.5731410104 -6.9038120813 13.127048138 185 214 131
7.9611675869 -7.0570153623 15.136142375 185 214 131
14.531747493 -7.083514429 21.560753495 185 214 131
15.541880632 -6.9568853906 22.845115874 185 214 131
12.801654904 -3.3551826545 25.807726343 208 159 163
12.313339905 -2.3423010463 26.137868114 208 159 163
10.069569556 -2.3358675099 23.911168619 208 159 163
7.4308003613 -3.0240241983 20.732075373 208 159 163
5.0560868451 -4.6989879224 17.020772174 208 159 163
8.4857310381 -4.8397306265 20.318876981 208 159 163
12.831698536 -4.8201388584 24.65759828 208 159 163
15.717971375 -7.1425764735 21.924670979 175 203 195
13.612758788 -7.1324775166 20.205711242 175 203 195
6.8840150171 -7.1291075058 13.607924662 175 203 195
7.0785572116 -7.1599493109 12.625002778 175 203 195
8.8874750206 -7.215983922 12.294158531 175 203 195
10.394248968 -7.2393641327 12.907867882 175 203 195
12.782786635 -7.2496809497 14.901738715 175 203 195
18.126709733 -7.2578989851 19.93010402 175 203 195
17.627983328 -7.2246034116 20.702619455 175 203 195
25.100736278 -14.569779396 10.50697257 158 219 179
26.418732762 -14.134936333 11.802164108 158 219 179
26.466570282 -13.272004128 11.849173908 158 219 179
26.610347408 -10.646943092 11.990463296 158 219 179
26.704917573 -8.8635692596 12.083397138 158 219 179
26.71711654 14.513955116 12.09538503 158 219 179
25.002228748 14.167490959 10.41016949 158 219 179
23.10969189 -13.882347107 8.5503786992 158 219 179
24.449945738 -14.349291801 9.8674424879 158 219 179
28.573602676 -10.666225869 -25.470267442 155 203 186
29.702133179 -11.422911596 -26.421551778 155 203 186
34.125106812 -11.225336273 -26.173165555 155 203 186
36.82485199 -11.095534534 -26.009982404 155 203 186
37.223609924 -10.535888929 -25.306411452 155 203 186
36.647293091 -10.083570229 -24.737768912 155 203 186
31.721078873 -9.7409547398 -24.30704221 155 203 186
30.141334534 -9.7752789385 -24.350193642 155 203 186
29.550842285 -9.988228759 -24.617908257 155 203 186
29.09069252 -10.285704009 -24.991885901 155 203 186
21 0 1 2 3 4 5 6 7 8 9 10 11 12 13 14 15 16 17 18 19 20 
16 21 22 23 24 25 26 27 28 29 30 31 32 33 34 35 36 
34 37 38 39 40 41 42 43 44 45 46 47 48 49 50 51 52 53 54 55 56 57 58 59 60 61 62 63 64 65 66 67 68 69 70 
29 71 72 73 74 75 76 77 78 79 80 81 82 83 84 85 86 87 88 89 90 91 92 93 94 95 96 97 98 99 
12 100 101 102 103 104 105 106 107 108 109 110 111 
14 112 113 114 115 116 117 118 119 120 121 122 123 124 125 
13 126 127 128 129 130 131 132 133 134 135 136 137 138 
16 139 140 141 142 143 144 145 146 147 148 149 150 151 152 153 154 
13 155 156 157 158 159 160 161 162 163 164 165 166 167 
11 168 169 170 171 172 173 174 175 176 177 178 
8 179 180 181 182 183 184 185 186 
18 187 188 189 190 191 192 193 194 195 196 197 198 199 200 201 202 203 204 
14 205 206 207 208 209 210 211 212 213 214 215 216 217 218 
10 219 220 221 222 223 224 225 226 227 228 
11 229 230 231 232 233 234 235 236 237 238 239 
10 240 241 242 243 244 245 246 247 248 249 
7 250 251 252 253 254 255 256 
10 257 258 259 260 261 262 263 264 265 266 
10 267 268 269 270 271 272 273 274 275 276 
10 277 278 279 280 281 282 283 284 285 286 
10 287 288 289 290 291 292 293 294 295 296 
15 297 298 299 300 301 302 303 304 305 306 307 308 309 310 311 
9 312 313 314 315 316 317 318 319 320 
34 321 322 323 324 325 326 327 328 329 330 331 332 333 334 335 336 337 338 339 340 341 342 343 344 345 346 347 348 349 350 351 352 353 354 
8 355 356 357 358 359 360 361 362 
10 363 364 365 366 367 368 369 370 371 372 
11 373 374 375 376 377 378 379 380 381 382 383 
15 384 385 386 387 388 389 390 391 392 393 394 395 396 397 398 
7 399 400 401 402 403 404 405 
13 406 407 408 409 410 411 412 413 414 415 416 417 418 
10 419 420 421 422 423 424 425 426 427 428 
15 429 430 431 432 433 434 435 436 437 438 439 440 441 442 443 
18 444 445 446 447 448 449 450 451 452 453 454 455 456 457 458 459 460 461 
11 462 463 464 465 466 467 468 469 470 471 472 
28 473 474 475 476 477 478 479 480 481 482 483 484 485 486 487 488 489 490 491 492 493 494 495 496 497 498 499 500 
31 501 502 503 504 505 506 507 508 509 510 511 512 513 514 515 516 517 518 519 520 521 522 523 524 525 526 527 528 529 530 531 
16 532 533 534 535 536 537 538 539 540 541 542 543 544 545 546 547 
12 548 549 550 551 552 553 554 555 556 557 558 559 
9 560 561 562 563 564 565 566 567 568 
16 569 570 571 572 573 574 575 576 577 578 579 580 581 582 583 584 
13 585 586 587 588 589 590 591 592 593 594 595 596 597 
10 598 599 600 601 602 603 604 605 606 607 
10 608 609 610 611 612 613 614 615 616 617 
14 618 619 620 621 622 623 624 625 626 627 628 629 630 631 
20 632 633 634 635 636 637 638 639 640 641 642 643 644 645 646 647 648 649 650 651 
12 652 653 654 655 656 657 658 659 660 661 662 663 
17 664 665 666 667 668 669 670 671 672 673 674 675 676 677 678 679 680 
12 681 682 683 684 685 686 687 688 689 690 691 692 
8 693 694 695 696 697 698 699 700 
15 701 702 703 704 705 706 707 708 709 710 711 712 713 714 715 
11 716 717 718 719 720 721 722 723 724 725 726 
7 727 728 729 730 731 732 733 
6 734 735 736 737 738 739 
10 740 741 742 743 744 745 746 747 748 749 
6 750 751 752 753 754 755 
11 756 757 758 759 760 761 762 763 764 765 766 
13 767 768 769 770 771 772 773 774 775 776 777 778 779 
8 780 781 782 783 784 785 786 787 
9 788 789 790 791 792 793 794 795 796 
11 797 798 799 800 801 802 803 804 805 806 807 
12 808 809 810 811 812 813 814 815 816 817 818 819 
9 820 821 822 823 824 825 826 827 828 
12 829 830 831 832 833 834 835 836 837 838 839 840 
7 841 842 843 844 845 846 847 
9 848 849 850 851 852 853 854 855 856 
9 857 858 859 860 861 862 863 864 865 
10 866 867 868 869 870 871 872 873 874 875 

